<svg width="192" height="171" viewBox="0 0 192 171" fill="none" xmlns="http://www.w3.org/2000/svg">
<g filter="url(#filter0_d_245_742)">
<path d="M114.069 34.6546H78.1967C68.6578 34.6546 60.9249 42.4086 60.9249 51.9737V87.9441C60.9249 97.5091 68.6578 105.263 78.1967 105.263H114.069C123.608 105.263 131.341 97.5091 131.341 87.9441V51.9737C131.341 42.4086 123.608 34.6546 114.069 34.6546Z" fill="white"/>
</g>
<path d="M72.0852 53.4277L84.4941 53.668C85.6696 53.6907 86.7174 54.4175 87.1526 55.5129L97.7009 82.0417L85.0678 86.9598L72.0852 53.4277Z" fill="#13D3CE"/>
<mask id="mask0_245_742" style="mask-type:alpha" maskUnits="userSpaceOnUse" x="72" y="53" width="26" height="34">
<path d="M72.0852 53.4277L84.4941 53.668C85.6696 53.6907 86.7174 54.4175 87.1526 55.5129L97.7009 82.0417L85.0678 86.9598L72.0852 53.4277Z" fill="#13D3CE"/>
</mask>
<g mask="url(#mask0_245_742)">
<path d="M89.4364 54.1817L85.2101 86.0352C85.161 86.4051 85.4961 86.7096 85.8582 86.6244L97.1444 83.9711C98.4789 83.6116 98.8588 81.8256 98.882 80.9775C98.8533 76.4634 100.216 75.1791 100.951 75.0835C100.987 75.0787 101.023 75.0736 101.058 75.0643L108.09 73.2013C114.874 70.5581 116.223 63.7584 116.049 60.6889L115.523 57.7191C115.516 57.6802 115.505 57.6413 115.489 57.605C112.143 49.683 105.427 48.4323 102.481 48.799L92.2451 51.1965C90.1451 51.6691 89.4975 53.3835 89.4364 54.1817Z" fill="#003636" fill-opacity="0.08"/>
</g>
<path d="M96.3481 55.7114L85.3755 85.9034C85.2482 86.2537 85.5099 86.6236 85.8819 86.6188L97.4732 86.4666C98.8536 86.4037 99.6085 84.7419 99.8134 83.9186C100.755 79.5046 102.362 78.5449 103.1 78.6102C103.136 78.6134 103.173 78.6163 103.209 78.6147L110.476 78.3147C117.668 77.1998 120.447 70.8512 120.937 67.8164L121.062 64.8026C121.064 64.7632 121.061 64.7227 121.053 64.684C119.488 56.2251 113.199 53.5524 110.243 53.2739L99.7323 53.4032C97.58 53.4109 96.5793 54.9454 96.3481 55.7114Z" fill="#9582F2"/>
<defs>
<filter id="filter0_d_245_742" x="0.924927" y="-20.3454" width="190.416" height="190.609" filterUnits="userSpaceOnUse" color-interpolation-filters="sRGB">
<feFlood flood-opacity="0" result="BackgroundImageFix"/>
<feColorMatrix in="SourceAlpha" type="matrix" values="0 0 0 0 0 0 0 0 0 0 0 0 0 0 0 0 0 0 127 0" result="hardAlpha"/>
<feOffset dy="5"/>
<feGaussianBlur stdDeviation="30"/>
<feComposite in2="hardAlpha" operator="out"/>
<feColorMatrix type="matrix" values="0 0 0 0 0 0 0 0 0 0 0 0 0 0 0 0 0 0 0.1 0"/>
<feBlend mode="normal" in2="BackgroundImageFix" result="effect1_dropShadow_245_742"/>
<feBlend mode="normal" in="SourceGraphic" in2="effect1_dropShadow_245_742" result="shape"/>
</filter>
</defs>
</svg>
