<svg width="21" height="21" viewBox="0 0 21 21" fill="none" xmlns="http://www.w3.org/2000/svg">
<g clip-path="url(#clip0_2446_24978)">
<circle cx="10.3374" cy="10.7642" r="10.1626" fill="#604BCA"/>
<mask id="path-2-inside-1_2446_24978" fill="white">
<path d="M12.8228 15.8625H7.85258C6.52466 15.8625 5.68049 15.0705 5.60461 13.7473L5.358 9.83471C5.32006 9.2419 5.52399 8.67279 5.93185 8.24122C6.33496 7.80965 6.90407 7.56303 7.49214 7.56303C7.64391 7.56303 7.79092 7.47293 7.86206 7.33065L8.20353 6.65247C8.48334 6.09759 9.18523 5.66602 9.79702 5.66602H10.8831C11.4949 5.66602 12.192 6.09759 12.4718 6.64772L12.8133 7.34013C12.8844 7.47293 13.0267 7.56303 13.1832 7.56303C13.7713 7.56303 14.3404 7.80965 14.7435 8.24122C15.1514 8.67753 15.3553 9.2419 15.3173 9.83471L15.0707 13.7521C14.9854 15.0942 14.1649 15.8625 12.8228 15.8625ZM9.79702 6.3774C9.44607 6.3774 9.00027 6.65247 8.83903 6.97022L8.49756 7.65314C8.29838 8.03729 7.91423 8.27442 7.49214 8.27442C7.09377 8.27442 6.72385 8.43566 6.44878 8.72496C6.17846 9.01425 6.04092 9.39366 6.06938 9.78729L6.31599 13.7046C6.3729 14.6626 6.88984 15.1511 7.85258 15.1511H12.8228C13.7808 15.1511 14.2977 14.6626 14.3594 13.7046L14.606 9.78729C14.6297 9.39366 14.4969 9.01425 14.2266 8.72496C13.9515 8.43566 13.5816 8.27442 13.1832 8.27442C12.7611 8.27442 12.377 8.03729 12.1778 7.66263L11.8316 6.97022C11.6751 6.65721 11.2293 6.38214 10.8783 6.38214H9.79702V6.3774Z"/>
</mask>
<path d="M12.8228 15.8625H7.85258C6.52466 15.8625 5.68049 15.0705 5.60461 13.7473L5.358 9.83471C5.32006 9.2419 5.52399 8.67279 5.93185 8.24122C6.33496 7.80965 6.90407 7.56303 7.49214 7.56303C7.64391 7.56303 7.79092 7.47293 7.86206 7.33065L8.20353 6.65247C8.48334 6.09759 9.18523 5.66602 9.79702 5.66602H10.8831C11.4949 5.66602 12.192 6.09759 12.4718 6.64772L12.8133 7.34013C12.8844 7.47293 13.0267 7.56303 13.1832 7.56303C13.7713 7.56303 14.3404 7.80965 14.7435 8.24122C15.1514 8.67753 15.3553 9.2419 15.3173 9.83471L15.0707 13.7521C14.9854 15.0942 14.1649 15.8625 12.8228 15.8625ZM9.79702 6.3774C9.44607 6.3774 9.00027 6.65247 8.83903 6.97022L8.49756 7.65314C8.29838 8.03729 7.91423 8.27442 7.49214 8.27442C7.09377 8.27442 6.72385 8.43566 6.44878 8.72496C6.17846 9.01425 6.04092 9.39366 6.06938 9.78729L6.31599 13.7046C6.3729 14.6626 6.88984 15.1511 7.85258 15.1511H12.8228C13.7808 15.1511 14.2977 14.6626 14.3594 13.7046L14.606 9.78729C14.6297 9.39366 14.4969 9.01425 14.2266 8.72496C13.9515 8.43566 13.5816 8.27442 13.1832 8.27442C12.7611 8.27442 12.377 8.03729 12.1778 7.66263L11.8316 6.97022C11.6751 6.65721 11.2293 6.38214 10.8783 6.38214H9.79702V6.3774Z" fill="white"/>
<path d="M5.60461 13.7473L6.4163 13.7008L6.41601 13.6962L5.60461 13.7473ZM5.358 9.83471L6.1694 9.78357L6.16935 9.78279L5.358 9.83471ZM5.93185 8.24122L6.52274 8.79965L6.52598 8.79618L5.93185 8.24122ZM7.86206 7.33065L7.1359 6.96503L7.13489 6.96706L7.86206 7.33065ZM8.20353 6.65247L7.47759 6.2864L7.47737 6.28685L8.20353 6.65247ZM12.4718 6.64772L13.201 6.28811L13.1965 6.27915L12.4718 6.64772ZM12.8133 7.34013L12.0841 7.69972L12.0902 7.71199L12.0966 7.72405L12.8133 7.34013ZM14.7435 8.24122L14.1494 8.79618L14.1496 8.79641L14.7435 8.24122ZM15.3173 9.83471L14.506 9.78279L14.5059 9.78363L15.3173 9.83471ZM15.0707 13.7521L15.8821 13.8037L15.8821 13.8031L15.0707 13.7521ZM9.79702 6.3774H10.61V5.56439H9.79702V6.3774ZM8.83903 6.97022L8.11401 6.6023L8.11185 6.60663L8.83903 6.97022ZM8.49756 7.65314L9.21939 8.02742L9.22474 8.01673L8.49756 7.65314ZM6.44878 8.72496L5.85957 8.16472L5.85475 8.16988L6.44878 8.72496ZM6.06938 9.78729L6.88082 9.73621L6.88027 9.72867L6.06938 9.78729ZM6.31599 13.7046L7.12757 13.6564L7.12739 13.6536L6.31599 13.7046ZM14.3594 13.7046L15.1707 13.7568L15.1708 13.7557L14.3594 13.7046ZM14.606 9.78729L15.4174 9.83837L15.4175 9.83618L14.606 9.78729ZM14.2266 8.72496L14.8206 8.16986L14.8158 8.16475L14.2266 8.72496ZM12.1778 7.66263L11.4506 8.02622L11.4551 8.0353L11.4599 8.04428L12.1778 7.66263ZM11.8316 6.97022L11.1044 7.3338V7.3338L11.8316 6.97022ZM9.79702 6.38214H8.98401V7.19515H9.79702V6.38214ZM12.8228 15.0495H7.85258V16.6755H12.8228V15.0495ZM7.85258 15.0495C7.35198 15.0495 7.0227 14.9031 6.81598 14.7088C6.60968 14.5148 6.44476 14.1972 6.41628 13.7008L4.79294 13.7939C4.84034 14.6206 5.13545 15.3606 5.70219 15.8934C6.2685 16.4259 7.02526 16.6755 7.85258 16.6755V15.0495ZM6.41601 13.6962L6.1694 9.78357L4.5466 9.88586L4.79321 13.7985L6.41601 13.6962ZM6.16935 9.78279C6.14572 9.41357 6.27101 9.066 6.52273 8.79964L5.34096 7.6828C4.77697 8.27958 4.4944 9.07022 4.54665 9.88664L6.16935 9.78279ZM6.52598 8.79618C6.77533 8.52923 7.12929 8.37604 7.49214 8.37604V6.75003C6.67885 6.75003 5.89459 7.09007 5.33771 7.68626L6.52598 8.79618ZM7.49214 8.37604C7.95718 8.37604 8.38279 8.10715 8.58924 7.69424L7.13489 6.96706C7.19906 6.83871 7.33063 6.75003 7.49214 6.75003V8.37604ZM8.58822 7.69627L8.92968 7.01808L7.47737 6.28685L7.1359 6.96503L8.58822 7.69627ZM8.92946 7.01853C8.98876 6.90093 9.11678 6.75791 9.30307 6.64283C9.48979 6.52748 9.67208 6.47902 9.79702 6.47902V4.85301C9.31017 4.85301 8.83563 5.02033 8.44849 5.25949C8.06093 5.49891 7.6981 5.84912 7.47759 6.2864L8.92946 7.01853ZM9.79702 6.47902H10.8831V4.85301H9.79702V6.47902ZM10.8831 6.47902C11.0077 6.47902 11.1887 6.52728 11.3744 6.64209C11.5597 6.75666 11.6876 6.89921 11.7472 7.0163L13.1965 6.27915C12.9762 5.8461 12.6156 5.4978 12.2295 5.25905C11.8437 5.02053 11.3702 4.85301 10.8831 4.85301V6.47902ZM11.7427 7.00731L12.0841 7.69972L13.5424 6.98055L13.201 6.28814L11.7427 7.00731ZM12.0966 7.72405C12.3039 8.11088 12.7156 8.37604 13.1832 8.37604V6.75003C13.3378 6.75003 13.465 6.83498 13.5299 6.95621L12.0966 7.72405ZM13.1832 8.37604C13.5461 8.37604 13.9 8.52923 14.1494 8.79618L15.3376 7.68626C14.7808 7.09007 13.9965 6.75003 13.1832 6.75003V8.37604ZM14.1496 8.79641C14.406 9.07075 14.5295 9.41607 14.506 9.78279L16.1287 9.88664C16.1811 9.06772 15.8967 8.28432 15.3374 7.68603L14.1496 8.79641ZM14.5059 9.78363L14.2593 13.701L15.8821 13.8031L16.1287 9.8858L14.5059 9.78363ZM14.2594 13.7005C14.2266 14.2161 14.0611 14.5307 13.8618 14.7177C13.6624 14.9047 13.3382 15.0495 12.8228 15.0495V16.6755C13.6495 16.6755 14.4066 16.4361 14.9743 15.9035C15.5421 15.3708 15.8295 14.6302 15.8821 13.8037L14.2594 13.7005ZM9.79702 5.56439C9.42827 5.56439 9.08186 5.70084 8.81936 5.86313C8.55614 6.02586 8.28042 6.27441 8.11403 6.60231L9.56403 7.33813C9.55868 7.34865 9.56161 7.33925 9.58439 7.31629C9.60612 7.2944 9.63695 7.26933 9.67441 7.24617C9.71191 7.22299 9.74753 7.20699 9.77556 7.19778C9.80516 7.18807 9.81235 7.19041 9.79702 7.19041V5.56439ZM8.11185 6.60663L7.77039 7.28955L9.22474 8.01673L9.5662 7.3338L8.11185 6.60663ZM7.77581 7.2789C7.7122 7.40158 7.60158 7.46141 7.49214 7.46141V9.08742C8.22688 9.08742 8.88455 8.673 9.21932 8.02738L7.77581 7.2789ZM7.49214 7.46141C6.86724 7.46141 6.2855 7.71681 5.85959 8.16475L7.03797 9.28517C7.1622 9.15452 7.3203 9.08742 7.49214 9.08742V7.46141ZM5.85475 8.16988C5.43357 8.62062 5.21332 9.22104 5.25849 9.84591L6.88027 9.72867C6.86853 9.56627 6.92335 9.40789 7.04281 9.28004L5.85475 8.16988ZM5.25798 9.83837L5.50459 13.7557L7.12739 13.6536L6.88078 9.73621L5.25798 9.83837ZM5.50441 13.7528C5.5407 14.3636 5.73241 14.9504 6.18705 15.3788C6.64169 15.8072 7.23926 15.9641 7.85258 15.9641V14.3381C7.50316 14.3381 7.36089 14.2508 7.30215 14.1954C7.24341 14.1401 7.1482 14.0036 7.12757 13.6564L5.50441 13.7528ZM7.85258 15.9641H12.8228V14.3381H7.85258V15.9641ZM12.8228 15.9641C13.435 15.9641 14.0308 15.8066 14.4847 15.3788C14.938 14.9517 15.1314 14.3667 15.1707 13.7568L13.548 13.6524C13.5256 14.0005 13.4297 14.1388 13.3696 14.1954C13.3102 14.2514 13.1685 14.3381 12.8228 14.3381V15.9641ZM15.1708 13.7557L15.4174 9.83837L13.7946 9.73621L13.5479 13.6536L15.1708 13.7557ZM15.4175 9.83618C15.4543 9.22502 15.2467 8.62584 14.8206 8.16988L13.6325 9.28004C13.7471 9.40266 13.805 9.56229 13.7944 9.7384L15.4175 9.83618ZM14.8158 8.16475C14.3898 7.71681 13.8081 7.46141 13.1832 7.46141V9.08742C13.355 9.08742 13.5131 9.15452 13.6374 9.28517L14.8158 8.16475ZM13.1832 7.46141C13.071 7.46141 12.9581 7.39843 12.8956 7.28098L11.4599 8.04428C11.7959 8.67615 12.4513 9.08742 13.1832 9.08742V7.46141ZM12.905 7.29904L12.5588 6.60663L11.1044 7.3338L11.4506 8.02622L12.905 7.29904ZM12.5588 6.60663C12.3938 6.27668 12.1163 6.02827 11.8547 5.86688C11.593 5.70539 11.2468 5.56913 10.8783 5.56913V7.19515C10.8631 7.19515 10.8704 7.19283 10.9001 7.20257C10.9282 7.2118 10.9638 7.22777 11.001 7.25072C11.0382 7.27368 11.0683 7.29821 11.0889 7.31901C11.1108 7.34102 11.1116 7.34815 11.1044 7.3338L12.5588 6.60663ZM10.8783 5.56913H9.79702V7.19515H10.8783V5.56913ZM10.61 6.38214V6.3774H8.98401V6.38214H10.61Z" fill="white" mask="url(#path-2-inside-1_2446_24978)"/>
<mask id="path-4-inside-2_2446_24978" fill="white">
<path d="M11.049 9.2231H9.6262C9.43175 9.2231 9.27051 9.06185 9.27051 8.86741C9.27051 8.67297 9.43175 8.51172 9.6262 8.51172H11.049C11.2434 8.51172 11.4047 8.67297 11.4047 8.86741C11.4047 9.06185 11.2434 9.2231 11.049 9.2231Z"/>
</mask>
<path d="M11.049 9.2231H9.6262C9.43175 9.2231 9.27051 9.06185 9.27051 8.86741C9.27051 8.67297 9.43175 8.51172 9.6262 8.51172H11.049C11.2434 8.51172 11.4047 8.67297 11.4047 8.86741C11.4047 9.06185 11.2434 9.2231 11.049 9.2231Z" fill="white"/>
<path d="M11.049 8.41009H9.6262V10.0361H11.049V8.41009ZM9.6262 8.41009C9.88077 8.41009 10.0835 8.61284 10.0835 8.86741H8.4575C8.4575 9.51087 8.98274 10.0361 9.6262 10.0361V8.41009ZM10.0835 8.86741C10.0835 9.12198 9.88077 9.32473 9.6262 9.32473V7.69871C8.98274 7.69871 8.4575 8.22395 8.4575 8.86741H10.0835ZM9.6262 9.32473H11.049V7.69871H9.6262V9.32473ZM11.049 9.32473C10.7944 9.32473 10.5916 9.12198 10.5916 8.86741H12.2177C12.2177 8.22395 11.6924 7.69871 11.049 7.69871V9.32473ZM10.5916 8.86741C10.5916 8.61284 10.7944 8.41009 11.049 8.41009V10.0361C11.6924 10.0361 12.2177 9.51087 12.2177 8.86741H10.5916Z" fill="white" mask="url(#path-4-inside-2_2446_24978)"/>
<path d="M10.3374 13.9659C9.28935 13.9659 8.44043 13.117 8.44043 12.0689C8.44043 11.0208 9.28935 10.1719 10.3374 10.1719C11.3856 10.1719 12.2345 11.0208 12.2345 12.0689C12.2345 13.117 11.3856 13.9659 10.3374 13.9659ZM10.3374 10.8833C9.68298 10.8833 9.15181 11.4144 9.15181 12.0689C9.15181 12.7234 9.68298 13.2545 10.3374 13.2545C10.9919 13.2545 11.5231 12.7234 11.5231 12.0689C11.5231 11.4144 10.9919 10.8833 10.3374 10.8833Z" fill="white"/>
</g>
<defs>
<clipPath id="clip0_2446_24978">
<rect width="20.3252" height="20.3252" fill="white" transform="translate(0.174805 0.601562)"/>
</clipPath>
</defs>
</svg>
