<svg width="24" height="24" viewBox="0 0 24 24" fill="none" xmlns="http://www.w3.org/2000/svg">
<path fill-rule="evenodd" clip-rule="evenodd" d="M12 23.625C9.70079 23.625 7.45319 22.9432 5.54146 21.6658C3.62974 20.3885 2.13977 18.5729 1.2599 16.4487C0.380031 14.3245 0.149825 11.9871 0.598378 9.73208C1.04693 7.47705 2.15408 5.40568 3.77987 3.77989C5.40565 2.1541 7.47706 1.04693 9.73209 0.598376C11.9871 0.149823 14.3245 0.380037 16.4487 1.25991C18.5729 2.13977 20.3885 3.62979 21.6659 5.54151C22.9432 7.45323 23.625 9.7008 23.625 12C23.625 15.0832 22.4002 18.04 20.2201 20.2201C18.04 22.4002 15.0831 23.625 12 23.625ZM12 2.31251C10.084 2.31251 8.21099 2.88067 6.61789 3.94514C5.02479 5.00962 3.78316 6.5226 3.04994 8.29276C2.31671 10.0629 2.12483 12.0108 2.49863 13.8899C2.87242 15.7691 3.7951 17.4953 5.14992 18.8501C6.50474 20.2049 8.23084 21.1276 10.11 21.5014C11.9892 21.8752 13.9371 21.6833 15.7073 20.9501C17.4774 20.2169 18.9904 18.9752 20.0549 17.3821C21.1193 15.789 21.6875 13.916 21.6875 12C21.6875 9.43072 20.6668 6.96667 18.8501 5.14991C17.0333 3.33315 14.5693 2.31251 12 2.31251ZM16.5589 16.5589C16.4734 16.6445 16.3718 16.7124 16.26 16.7587C16.1483 16.805 16.0285 16.8288 15.9075 16.8288C15.7865 16.8288 15.6667 16.805 15.5549 16.7587C15.4431 16.7124 15.3415 16.6445 15.256 16.5589L11.9855 13.2884L8.71497 16.5589C8.63056 16.6484 8.52904 16.7201 8.41644 16.7696C8.30384 16.8192 8.18243 16.8456 8.05942 16.8474C7.93641 16.8492 7.81432 16.8263 7.70034 16.78C7.58635 16.7337 7.48279 16.665 7.39583 16.578C7.30887 16.491 7.24028 16.3874 7.19409 16.2734C7.14789 16.1593 7.12505 16.0372 7.12692 15.9142C7.12879 15.7912 7.15533 15.6698 7.20497 15.5573C7.2546 15.4447 7.32632 15.3432 7.41588 15.2589L10.6864 11.9884L7.41588 8.71788C7.32632 8.63354 7.2546 8.53208 7.20497 8.41952C7.15533 8.30695 7.12879 8.18557 7.12692 8.06256C7.12505 7.93956 7.14789 7.81742 7.19409 7.70341C7.24028 7.58939 7.30887 7.4858 7.39583 7.39878C7.48279 7.31176 7.58635 7.24307 7.70034 7.19679C7.81432 7.15051 7.93641 7.12759 8.05942 7.12936C8.18243 7.13114 8.30384 7.15758 8.41644 7.20713C8.52904 7.25668 8.63056 7.32832 8.71497 7.41782L11.9855 10.6883L15.256 7.41782C15.341 7.33084 15.4424 7.26159 15.5543 7.21408C15.6663 7.16657 15.7866 7.14175 15.9082 7.14105C16.0298 7.14035 16.1503 7.16379 16.2628 7.21001C16.3753 7.25622 16.4775 7.32431 16.5635 7.41031C16.6495 7.49631 16.7176 7.59851 16.7639 7.711C16.8101 7.8235 16.8335 7.94405 16.8328 8.06567C16.8321 8.18728 16.8073 8.30755 16.7598 8.41951C16.7123 8.53147 16.643 8.63288 16.556 8.71788L13.2856 11.9884L16.556 15.2589C16.7286 15.431 16.8258 15.6646 16.8263 15.9083C16.8268 16.152 16.7307 16.386 16.5589 16.5589Z" fill="#3F3F46"/>
</svg>
