<svg width="18" height="20" viewBox="0 0 18 20" fill="none" xmlns="http://www.w3.org/2000/svg">
<path d="M14.2587 14.2056L12.402 13.5868L11.7355 12.2538C12.336 11.6426 12.7529 10.8339 12.8935 9.99043L12.9766 9.49219H13.6875C14.3337 9.49219 14.8594 8.96648 14.8594 8.32031V5.85938C14.8594 2.62852 12.2309 0 9 0C5.76086 0 3.14062 2.62098 3.14062 5.85938V8.32031C3.14062 8.82953 3.46723 9.26375 3.92188 9.425V9.88281C3.92188 10.529 4.44758 11.0547 5.09375 11.0547H5.4368C5.60613 11.4225 5.82531 11.7632 6.09203 12.0693C6.14734 12.1329 6.20504 12.1945 6.26414 12.2545L5.59797 13.5868L3.74129 14.2056C1.5825 14.9255 0.015625 17.1981 0.015625 19.6094C0.015625 19.8251 0.190508 20 0.40625 20H17.5938C17.8095 20 17.9844 19.8251 17.9844 19.6094C17.9844 17.1981 16.4175 14.9255 14.2587 14.2056ZM14.0781 8.32031C14.0781 8.5357 13.9029 8.71094 13.6875 8.71094H13.0913C13.1906 7.9418 13.2568 7.12332 13.2834 6.31719C13.2842 6.29445 13.2848 6.27234 13.2855 6.25H14.0781V8.32031ZM4.3125 8.71094C4.09711 8.71094 3.92188 8.5357 3.92188 8.32031V6.25H4.71477C4.71605 6.29074 4.71742 6.33168 4.71895 6.37289C4.71898 6.3743 4.71906 6.37566 4.7191 6.37707C4.7191 6.37719 4.7191 6.3773 4.7191 6.37742C4.74645 7.16148 4.81176 7.95871 4.90879 8.7109H4.3125V8.71094ZM5.09375 10.2734C4.87836 10.2734 4.70312 10.0982 4.70312 9.88281V9.49219H5.02336L5.10648 9.99059C5.12234 10.0853 5.14184 10.1797 5.16437 10.2734H5.09375ZM4.70379 5.46875H3.93672C4.13457 2.85074 6.31941 0.78125 9 0.78125C11.6687 0.78125 13.8631 2.85047 14.0632 5.46875H13.2963C13.2681 3.31145 11.5114 1.5625 9.34965 1.5625H8.65043C6.48875 1.5625 4.73187 3.31145 4.70379 5.46875ZM8.65039 2.34375H9.34961C11.1 2.34375 12.5166 3.77543 12.5156 5.52383C12.5156 5.64676 12.5146 5.75379 12.5126 5.85117C12.5126 5.85242 12.5125 5.85371 12.5125 5.855L12.0239 5.7852C10.6966 5.59566 9.44332 4.96902 8.49496 4.02066C8.42168 3.94742 8.32234 3.90625 8.21875 3.90625C7.16969 3.90625 6.16547 4.38422 5.50164 5.19172C5.66523 3.60113 7.00988 2.34375 8.65039 2.34375ZM5.97422 10.2734C5.77867 9.62293 5.55492 7.70887 5.50547 6.48231L6.03121 5.78129C6.51406 5.1377 7.26527 4.73781 8.06437 4.69191C9.11582 5.69254 10.4761 6.35332 11.9135 6.55855L12.4886 6.64074C12.4501 7.45656 12.3716 8.27523 12.259 9.02816C12.259 9.0284 12.2589 9.02867 12.2589 9.02895C12.2231 9.27102 12.1949 9.4268 12.1229 9.86191C11.916 11.1027 10.9902 12.2248 9.76793 12.5304C9.26492 12.656 8.735 12.6559 8.23227 12.5304C7.4691 12.3396 6.76934 11.8116 6.31773 11.0547H7.11406C7.27531 11.5093 7.70949 11.8359 8.21875 11.8359H9C9.64746 11.8359 10.1719 11.3116 10.1719 10.6641C10.1719 10.0179 9.64617 9.49219 9 9.49219H8.21875C7.69816 9.49219 7.27039 9.82844 7.1134 10.2734H5.97422ZM8.1859 13.3209C8.45383 13.3774 8.72699 13.4062 9 13.4062C9.21371 13.4062 9.42746 13.3884 9.63879 13.3537L8.94855 14.0836L8.1859 13.3209ZM8.41152 14.6515L7.17254 15.9618C6.83145 15.3089 6.53836 14.6294 6.29797 13.9338L6.76324 13.0032L8.41152 14.6515ZM11.1705 12.8709L11.702 13.9337C11.4612 14.6305 11.168 15.3102 10.8273 15.9623L9.50117 14.6362L11.1705 12.8709ZM7.82812 10.6641C7.82812 10.4484 8.00305 10.2734 8.21875 10.2734H9C9.21539 10.2734 9.39062 10.4487 9.39062 10.6641C9.39062 10.8798 9.21566 11.0547 9 11.0547H8.21875C8.00336 11.0547 7.82812 10.8795 7.82812 10.6641ZM0.8125 19.2188C0.967305 17.2836 2.25516 15.5247 3.98836 14.9468L5.63266 14.3988C5.93391 15.2318 6.30711 16.0414 6.74449 16.8105C6.74523 16.8118 6.74594 16.8132 6.74668 16.8145C6.74668 16.8145 6.74672 16.8145 6.74672 16.8145C7.06629 17.3766 7.42598 17.9259 7.81594 18.4473L8.29648 19.2188H0.8125ZM9 18.8705L8.47023 18.02C8.4643 18.0105 8.45797 18.0012 8.45125 17.9923C8.13492 17.5703 7.83984 17.129 7.57109 16.6773L8.96418 15.2041L10.4321 16.672C10.1615 17.127 9.86543 17.5701 9.54883 17.9922C9.52969 18.0177 9.55684 17.9775 9 18.8705ZM9.70352 19.2188L10.184 18.4473C10.5757 17.9239 10.938 17.3702 11.2607 16.8016C11.2627 16.7981 11.2645 16.7946 11.2665 16.7912C11.2667 16.7907 11.267 16.7904 11.2672 16.7899C11.699 16.0282 12.0683 15.2256 12.3673 14.3988L14.0116 14.9468C15.7448 15.5247 17.0327 17.2836 17.1875 19.2188H9.70352Z" fill="#9582F2"/>
</svg>
