<svg width="35" height="50" viewBox="0 0 35 50" fill="none" xmlns="http://www.w3.org/2000/svg">
<rect x="1.48456" y="0.634955" width="32.0309" height="48.7301" rx="1.67397" stroke="#181D3D" stroke-width="1.26991"/>
<line x1="15.7823" y1="5.47741" x2="18.5341" y2="5.47741" stroke="#181D3D" stroke-width="1.15446" stroke-linecap="round"/>
<line x1="14.5128" y1="45.4188" x2="20.5849" y2="45.4188" stroke="#181D3D" stroke-width="1.15446" stroke-linecap="round"/>
<line x1="27.5988" y1="5.47741" x2="28.4951" y2="5.47741" stroke="#181D3D" stroke-width="1.15446" stroke-linecap="round"/>
<path d="M18.126 11.7881L9.89051 24.7159C9.86603 24.7543 9.89364 24.8047 9.9392 24.8047H16.1727C16.2046 24.8047 16.2305 24.8305 16.2305 24.8624V34.0704C16.2305 34.1288 16.3073 34.1503 16.3376 34.1003L24.4783 20.6442C24.5015 20.6057 24.4738 20.5566 24.4289 20.5566H18.2901C18.2583 20.5566 18.2324 20.5308 18.2324 20.4989V11.8191C18.2324 11.7614 18.157 11.7394 18.126 11.7881Z" stroke="#181D3D" stroke-width="1.21219"/>
<path d="M1.92383 40.8203H33.2227" stroke="#181D3D" stroke-width="1.38536"/>
</svg>
