<svg width="24" height="25" viewBox="0 0 24 25" fill="none" xmlns="http://www.w3.org/2000/svg">
<path d="M19.5 6.06055L18.8803 16.0856C18.7219 18.6469 18.6428 19.9276 18.0008 20.8484C17.6833 21.3036 17.2747 21.6878 16.8007 21.9765C15.8421 22.5605 14.559 22.5605 11.9927 22.5605C9.42312 22.5605 8.1383 22.5605 7.17905 21.9754C6.7048 21.6862 6.296 21.3013 5.97868 20.8453C5.33688 19.9231 5.25945 18.6406 5.10461 16.0757L4.5 6.06055" stroke="#F03030" stroke-width="1.5" stroke-linecap="round"/>
<path d="M3 6.06055H21M16.0557 6.06055L15.3731 4.65228C14.9196 3.71681 14.6928 3.24907 14.3017 2.95736C14.215 2.89265 14.1231 2.83509 14.027 2.78525C13.5939 2.56055 13.0741 2.56055 12.0345 2.56055C10.9688 2.56055 10.436 2.56055 9.99568 2.79467C9.8981 2.84656 9.80498 2.90645 9.71729 2.97372C9.32164 3.27725 9.10063 3.7621 8.65861 4.73181L8.05292 6.06055" stroke="#F03030" stroke-width="1.5" stroke-linecap="round"/>
<path d="M9.5 17.0605V11.0605" stroke="#F03030" stroke-width="1.5" stroke-linecap="round"/>
<path d="M14.5 17.0605V11.0605" stroke="#F03030" stroke-width="1.5" stroke-linecap="round"/>
</svg>
