<svg width="51" height="51" viewBox="0 0 51 51" fill="none" xmlns="http://www.w3.org/2000/svg">
<path d="M9.12292 37.9719C9.12292 41.1469 11.7063 43.7292 14.8813 43.7292H38.3063C38.5938 43.7292 38.8271 43.4958 38.8271 43.2083V41.6146C38.8271 41.5063 38.7865 41.4115 38.7302 41.3292C38.724 41.3198 38.7261 41.3073 38.7198 41.2979C37.9854 40.3396 37.5969 39.1896 37.5969 37.9719C37.5969 36.7542 37.9854 35.6042 38.7198 34.6448C38.7261 34.6365 38.724 34.624 38.7302 34.6146C38.7865 34.5312 38.8271 34.4365 38.8271 34.3281V33.2552H41.1573C41.4448 33.2552 41.6781 33.0219 41.6781 32.7344V31.1406C41.6781 31.0323 41.6375 30.9375 41.5813 30.8542C41.575 30.8448 41.5781 30.8323 41.5708 30.824C40.8365 29.8646 40.449 28.7146 40.449 27.4969C40.449 26.2792 40.8375 25.1292 41.5708 24.1698C41.5771 24.1615 41.575 24.149 41.5813 24.1396C41.6375 24.0562 41.6781 23.9615 41.6781 23.8531V22.2594C41.6781 21.9719 41.4448 21.7385 41.1573 21.7385H35.7125V16.8854L39.824 14.9458V18.5167C39.2375 18.7312 38.8146 19.2896 38.8146 19.95C38.8146 20.7938 39.501 21.4802 40.3448 21.4802C41.1896 21.4802 41.876 20.7938 41.876 19.95C41.876 19.2896 41.4531 18.7312 40.8656 18.5167V14.125C40.8656 14.0333 40.8354 13.9521 40.7948 13.8771C40.7844 13.8573 40.7719 13.8417 40.7583 13.824C40.7135 13.7625 40.6594 13.7125 40.5927 13.676C40.5844 13.6708 40.5802 13.6604 40.5708 13.6562L27.4313 7.32292C27.2875 7.25417 27.1219 7.25417 26.9781 7.32292L13.8375 13.6562C13.6573 13.7427 13.5417 13.9271 13.5427 14.1271C13.5438 14.3281 13.6594 14.5104 13.8417 14.5958L18.6969 16.8854V21.7385H17.7323C16.1906 21.7385 14.7427 22.3365 13.6573 23.4219C12.5719 24.5073 11.975 25.9542 11.975 27.4969C11.975 29.4698 12.9729 31.2125 14.4906 32.251C13.0979 32.3448 11.7979 32.9042 10.8073 33.8958C9.72084 34.9813 9.12292 36.4281 9.12292 37.9719ZM36.5958 37.451H14.1979C13.9104 37.451 13.6771 37.6844 13.6771 37.9719C13.6771 38.2594 13.9104 38.4927 14.1979 38.4927H36.5958C36.6677 39.4135 36.9229 40.2938 37.3615 41.0938H15.0542C13.3323 41.0938 11.9313 39.6937 11.9313 37.9719C11.9313 37.1354 12.2563 36.351 12.8417 35.7646C13.4406 35.174 14.226 34.849 15.0542 34.849H37.3625C36.9229 35.65 36.6688 36.5292 36.5958 37.451ZM39.4479 26.976H17.049C16.7615 26.976 16.5281 27.2094 16.5281 27.4969C16.5281 27.7844 16.7615 28.0177 17.049 28.0177H39.4479C39.5198 28.9396 39.775 29.8188 40.2135 30.6198H17.9052C16.1833 30.6198 14.7823 29.2188 14.7823 27.4969C14.7823 26.6615 15.1073 25.876 15.6927 25.2896C16.2917 24.699 17.0771 24.374 17.9052 24.374H40.2125C39.774 25.175 39.5198 26.0552 39.4479 26.976ZM40.3458 20.4396C40.076 20.4396 39.8573 20.2208 39.8573 19.951C39.8573 19.6813 40.076 19.4625 40.3458 19.4625C40.6156 19.4625 40.8354 19.6813 40.8354 19.951C40.8354 20.2208 40.6156 20.4396 40.3458 20.4396ZM15.275 14.1198L27.2063 8.36979L39.1365 14.1198L35.7135 15.7344V14.226C35.7135 14.1583 35.699 14.0937 35.675 14.0333C35.6667 14.0115 35.6521 13.9948 35.6406 13.974C35.6208 13.9385 35.601 13.9031 35.5729 13.874C35.5552 13.8552 35.5333 13.8406 35.5135 13.824C35.4844 13.801 35.4552 13.7781 35.4208 13.7615C35.3958 13.749 35.3688 13.7417 35.3417 13.7333C35.3188 13.726 35.299 13.7135 35.275 13.7104L33.3802 13.4073C29.2833 12.749 25.1292 12.7479 21.0323 13.4073L19.1365 13.7104C19.1125 13.7146 19.0927 13.7271 19.0698 13.7333C19.0427 13.7417 19.0156 13.749 18.9906 13.7615C18.9563 13.7781 18.9281 13.8 18.8979 13.824C18.8771 13.8406 18.8563 13.8542 18.8385 13.874C18.8104 13.9042 18.7906 13.9385 18.7708 13.974C18.7594 13.9938 18.7448 14.0115 18.7365 14.0333C18.7125 14.0937 18.6979 14.1573 18.6979 14.226V15.7344L15.275 14.1198ZM19.7385 16.5562V14.6708L21.1969 14.4375C25.1833 13.7969 29.226 13.7969 33.2146 14.4375L34.6708 14.6698V16.5562V21.7396H19.7385V16.5562ZM13.0167 27.4969C13.0167 26.2323 13.5063 25.0458 14.3938 24.1583C15.2833 23.2698 16.4688 22.7802 17.7323 22.7802H19.2177H35.1917H40.6365V23.3323H17.9052C16.8021 23.3323 15.7563 23.7646 14.9594 24.55C14.174 25.3365 13.7417 26.3823 13.7417 27.4958C13.7417 29.7917 15.6094 31.6604 17.9063 31.6604H40.6375V32.2125H38.3073H17.7323C15.1313 32.2135 13.0167 30.0979 13.0167 27.4969ZM14.8813 33.2552H17.7323H37.7854V33.8073H15.0542C13.951 33.8073 12.9063 34.2396 12.1083 35.025C11.3229 35.8104 10.8906 36.8562 10.8906 37.9708C10.8906 40.2667 12.7583 42.1344 15.0552 42.1344H37.7865V42.6865H14.8813C12.2802 42.6865 10.1646 40.5708 10.1646 37.9708C10.1646 36.7062 10.6542 35.5198 11.5427 34.6323C12.4313 33.7448 13.6167 33.2552 14.8813 33.2552Z" fill="#181D3D"/>
</svg>
