<svg width="24" height="25" viewBox="0 0 24 25" fill="none" xmlns="http://www.w3.org/2000/svg">
<path d="M17 15.0001V11.9945C17 11.815 17 11.7253 16.9727 11.646C16.9485 11.576 16.9091 11.5122 16.8572 11.4592C16.7986 11.3993 16.7183 11.3592 16.5578 11.279L12 9.00006M4 10.0001V16.8067C4 17.1786 4 17.3645 4.05802 17.5274C4.10931 17.6713 4.1929 17.8016 4.30238 17.9082C4.42622 18.0287 4.59527 18.1062 4.93335 18.2612L11.3334 21.1945C11.5786 21.3069 11.7012 21.3631 11.8289 21.3853C11.9421 21.4049 12.0579 21.4049 12.1711 21.3853C12.2988 21.3631 12.4214 21.3069 12.6666 21.1945L19.0666 18.2612C19.4047 18.1062 19.5738 18.0287 19.6976 17.9082C19.8071 17.8016 19.8907 17.6713 19.942 17.5274C20 17.3645 20 17.1786 20 16.8067V10.0001M2 9.00006L11.6422 4.17895C11.7734 4.11336 11.839 4.08056 11.9078 4.06766C11.9687 4.05622 12.0313 4.05622 12.0922 4.06766C12.161 4.08056 12.2266 4.11336 12.3578 4.17895L22 9.00006L12.3578 13.8212C12.2266 13.8868 12.161 13.9196 12.0922 13.9325C12.0313 13.9439 11.9687 13.9439 11.9078 13.9325C11.839 13.9196 11.7734 13.8868 11.6422 13.8212L2 9.00006Z" stroke="#604BCA" stroke-width="2.5" stroke-linecap="round" stroke-linejoin="round"/>
</svg>
