<svg width="20" height="21" viewBox="0 0 20 21" fill="none" xmlns="http://www.w3.org/2000/svg">
<path d="M12.5 10.5602C12.5 9.63972 13.2462 8.89355 14.1667 8.89355C16.0076 8.89355 17.5 10.386 17.5 12.2269C17.5 14.0678 16.0076 15.5602 14.1667 15.5602C13.2462 15.5602 12.5 14.8141 12.5 13.8936V10.5602Z" stroke="#70707B"/>
<path d="M7.5 10.5602C7.5 9.63972 6.75381 8.89355 5.83333 8.89355C3.99238 8.89355 2.5 10.386 2.5 12.2269C2.5 14.0678 3.99238 15.5602 5.83333 15.5602C6.75381 15.5602 7.5 14.8141 7.5 13.8936V10.5602Z" stroke="#70707B"/>
<path d="M2.5 12.2275V9.72754C2.5 5.58541 5.85787 2.22754 10 2.22754C14.1422 2.22754 17.5 5.58541 17.5 9.72754V13.766C17.5 15.4396 17.5 16.2764 17.2063 16.929C16.8721 17.6716 16.2774 18.2663 15.5348 18.6005C14.8822 18.8942 14.0454 18.8942 12.3718 18.8942H10" stroke="#70707B" stroke-linecap="round" stroke-linejoin="round"/>
</svg>
