<svg width="21" height="20" viewBox="0 0 21 20" fill="none" xmlns="http://www.w3.org/2000/svg">
<path d="M17.5494 6.97504L11.7744 2.35837C10.8827 1.6417 9.44107 1.6417 8.55774 2.35004L2.78274 6.97504C2.13274 7.4917 1.71607 8.58337 1.85774 9.40004L2.96607 16.0334C3.16607 17.2167 4.29941 18.175 5.49941 18.175H14.8327C16.0244 18.175 17.1661 17.2084 17.3661 16.0334L18.4744 9.40004C18.6077 8.58337 18.1911 7.4917 17.5494 6.97504ZM10.1661 12.9167C9.01607 12.9167 8.08274 11.9834 8.08274 10.8334C8.08274 9.68337 9.01607 8.75004 10.1661 8.75004C11.3161 8.75004 12.2494 9.68337 12.2494 10.8334C12.2494 11.9834 11.3161 12.9167 10.1661 12.9167Z" fill="#5842C4"/>
</svg>
