<svg width="51" height="50" viewBox="0 0 51 50" fill="none" xmlns="http://www.w3.org/2000/svg">
<g clip-path="url(#clip0_108_775)">
<path d="M30.1204 18.022C30.1204 20.7073 27.9354 22.8924 25.25 22.8924C22.5646 22.8924 20.3796 20.7073 20.3796 18.022C20.3796 15.3367 22.5647 13.1516 25.25 13.1516C27.9353 13.1516 30.1204 15.3367 30.1204 18.022ZM27.5421 18.0219C27.5421 16.7579 26.5141 15.7298 25.25 15.7298C23.9859 15.7298 22.9579 16.7579 22.9579 18.0219C22.9579 19.2859 23.986 20.314 25.25 20.314C26.514 20.314 27.5421 19.2859 27.5421 18.0219Z" fill="#181D3D" stroke="#BEFFE0" stroke-width="0.5"/>
<path d="M19.6003 33.127L19.5095 33.4455H19.8407H30.6593H30.9905L30.8997 33.127C30.1989 30.6678 27.9321 28.8612 25.25 28.8612C22.5679 28.8612 20.3011 30.6678 19.6003 33.127ZM16.7982 34.7347C16.7982 30.0745 20.5899 26.2829 25.25 26.2829C29.91 26.2829 33.7018 30.0746 33.7018 34.7347V36.0239H16.7982V34.7347Z" fill="#181D3D" stroke="#BEFFE0" stroke-width="0.5"/>
<path d="M0.874228 10.2761L0.874227 10.2761L0.812089 8.69554L2.37257 8.95346C3.64954 9.16459 4.94911 9.27152 6.23543 9.27152C12.9643 9.27131 19.3873 6.44512 24.3216 1.32384L25.25 0.360318L26.1784 1.32394L26.3584 1.15048L26.1784 1.32395C31.1132 6.44552 37.5361 9.27183 44.2645 9.27162C45.5514 9.27162 46.851 9.16459 48.1274 8.95356L49.6881 8.69555L49.626 10.2761C49.3359 17.6606 47.9078 24.3145 45.3864 30.0559C43.3539 34.6841 40.6117 38.7319 37.2371 42.0887C31.452 47.8432 25.8333 49.5649 25.6192 49.6288L25.6191 49.6288L25.2501 49.7391L24.881 49.6288L24.881 49.6288C24.6669 49.5649 19.048 47.8432 13.2631 42.0887L13.0868 42.266L13.2631 42.0887C9.88843 38.7319 7.14618 34.6841 5.11376 30.0559C2.5924 24.3145 1.16422 17.6606 0.874228 10.2761ZM25.16 46.9991L25.2475 47.0316L25.3349 46.9988C26.7276 46.4763 31.1136 44.5879 35.5407 40.1387C42.2412 33.4048 46.1604 23.6983 46.9518 12.0036L46.9716 11.7107L46.6793 11.7378C45.8746 11.8123 45.0673 11.8499 44.2645 11.8499C40.5383 11.85 36.8856 11.0657 33.4068 9.51735C30.4812 8.2153 27.8011 6.42957 25.421 4.19762L25.25 4.03726L25.079 4.19761C22.6991 6.42916 20.0188 8.2151 17.0931 9.51714C13.6143 11.0654 9.96159 11.8499 6.23553 11.85C5.43279 11.85 4.62523 11.8124 3.82032 11.7379L3.52813 11.7108L3.54784 12.0036C4.54379 26.7996 10.3039 35.5084 15.0814 40.2607C19.493 44.6492 23.7826 46.4869 25.16 46.9991Z" fill="#181D3D" stroke="#BEFFE0" stroke-width="0.5"/>
</g>
<defs>
<clipPath id="clip0_108_775">
<rect width="50" height="50" fill="white" transform="translate(0.25)"/>
</clipPath>
</defs>
</svg>
