<svg width="24" height="25" viewBox="0 0 24 25" fill="none" xmlns="http://www.w3.org/2000/svg">
<path d="M9 11.9999L11 13.9999L15.5 9.49987M20 12.4999C20 17.4083 14.646 20.9783 12.698 22.1147C12.4766 22.2439 12.3659 22.3085 12.2097 22.342C12.0884 22.368 11.9116 22.368 11.7903 22.342C11.6341 22.3085 11.5234 22.2439 11.302 22.1147C9.35396 20.9783 4 17.4083 4 12.4999V7.71747C4 6.91796 4 6.5182 4.13076 6.17457C4.24627 5.87101 4.43398 5.60015 4.67766 5.3854C4.9535 5.14231 5.3278 5.00195 6.0764 4.72122L11.4382 2.71054C11.6461 2.63258 11.75 2.5936 11.857 2.57815C11.9518 2.56444 12.0482 2.56444 12.143 2.57815C12.25 2.5936 12.3539 2.63258 12.5618 2.71054L17.9236 4.72122C18.6722 5.00195 19.0465 5.14231 19.3223 5.3854C19.566 5.60015 19.7537 5.87101 19.8692 6.17457C20 6.5182 20 6.91796 20 7.71747V12.4999Z" stroke="#604BCA" stroke-width="2.5" stroke-linecap="round" stroke-linejoin="round"/>
</svg>
