<svg width="185" height="53" viewBox="0 0 185 53" fill="none" xmlns="http://www.w3.org/2000/svg">
<g clip-path="url(#clip0_70_3950)">
<g filter="url(#filter0_d_70_3950)">
<path d="M35.6032 7.57144H17.1169C12.2012 7.57144 8.21613 11.5776 8.21613 16.5195V35.1039C8.21613 40.0458 12.2012 44.052 17.1169 44.052H35.6032C40.519 44.052 44.5041 40.0458 44.5041 35.1039V16.5195C44.5041 11.5776 40.519 7.57144 35.6032 7.57144Z" fill="white"/>
</g>
<path d="M13.9674 17.2708L20.3622 17.3949C20.968 17.4066 21.5079 17.7823 21.7322 18.3481L27.1681 32.0545L20.6578 34.5954L13.9674 17.2708Z" fill="#13D3CE"/>
<mask id="mask0_70_3950" style="mask-type:alpha" maskUnits="userSpaceOnUse" x="13" y="17" width="15" height="18">
<path d="M13.9674 17.2708L20.3622 17.3949C20.968 17.4066 21.5079 17.7823 21.7322 18.3481L27.1681 32.0545L20.6578 34.5954L13.9674 17.2708Z" fill="#13D3CE"/>
</mask>
<g mask="url(#mask0_70_3950)">
<path d="M22.9091 17.6603L20.7312 34.1177C20.7058 34.3087 20.8785 34.4661 21.0652 34.422L26.8814 33.0512C27.5691 32.8655 27.7649 31.9427 27.7768 31.5046C27.762 29.1723 28.4642 28.5088 28.843 28.4593C28.8616 28.4569 28.8801 28.4542 28.8982 28.4494L32.5219 27.4869C36.018 26.1213 36.7132 22.6081 36.6238 21.0223L36.3527 19.4879C36.3491 19.4678 36.3432 19.4477 36.3353 19.429C34.6107 15.336 31.1498 14.6898 29.6317 14.8792L24.3566 16.1179C23.2743 16.3621 22.9406 17.2478 22.9091 17.6603Z" fill="#003636" fill-opacity="0.08"/>
</g>
<path d="M26.471 18.4506L20.8165 34.0496C20.7508 34.2306 20.8857 34.4217 21.0774 34.4192L27.0508 34.3406C27.7622 34.3081 28.1512 33.4495 28.2568 33.0241C28.7422 30.7436 29.5701 30.2477 29.9507 30.2815C29.9693 30.2831 29.9879 30.2846 30.0067 30.2838L33.7516 30.1288C37.4583 29.5528 38.8901 26.2727 39.1428 24.7048L39.207 23.1477C39.2078 23.1273 39.2063 23.1064 39.2026 23.0864C38.3959 18.716 35.1549 17.3351 33.6318 17.1913L28.215 17.2581C27.106 17.262 26.5903 18.0548 26.471 18.4506Z" fill="#9582F2"/>
<path d="M60.8569 37.089C60.5958 37.089 60.3849 37.0587 60.2243 36.9981C60.0636 36.9376 59.9431 36.8064 59.8628 36.6044L52.0602 16.9187C51.9195 16.5755 51.9095 16.3533 52.03 16.2524C52.1505 16.1515 52.3413 16.0304 52.6024 15.889C52.7631 15.8082 52.9137 15.7678 53.0543 15.7678C53.1949 15.7476 53.3154 15.7779 53.4158 15.8587C53.5363 15.9395 53.6367 16.0807 53.7171 16.2827L60.8569 34.5753L67.9365 16.6158C68.0169 16.4139 68.0971 16.2322 68.1775 16.0707C68.2779 15.9092 68.4085 15.8082 68.5691 15.7678C68.7499 15.7275 68.9809 15.7779 69.262 15.9193C69.6838 16.1212 69.8645 16.3433 69.8043 16.5856C69.7642 16.8278 69.6938 17.0601 69.5934 17.2821L61.8812 36.5741C61.8008 36.7558 61.6803 36.887 61.5197 36.9678C61.359 37.0487 61.138 37.089 60.8569 37.089ZM77.548 37.1496C76.4435 37.1496 75.4292 36.9678 74.5053 36.6044C73.6015 36.241 72.8182 35.7261 72.1555 35.0598C71.5128 34.3936 71.0107 33.6061 70.6492 32.6976C70.2877 31.789 70.1069 30.7795 70.1069 29.669C70.1069 28.3566 70.4183 27.1755 71.0408 26.1256C71.6635 25.0756 72.5271 24.2478 73.6316 23.6421C74.7363 23.0162 76.0016 22.7033 77.4275 22.7033C78.3514 22.7033 79.1949 22.8446 79.958 23.1273C80.7213 23.4099 81.3841 23.7936 81.9464 24.2781C82.5088 24.7627 82.9405 25.3179 83.2418 25.9438C83.5632 26.5698 83.7238 27.2158 83.7238 27.8821C83.7238 28.8715 83.4929 29.5478 83.0309 29.9113C82.5891 30.2545 82.0469 30.4261 81.4041 30.4261H71.9145C71.8743 31.4962 72.1355 32.4149 72.6977 33.1821C73.2803 33.9493 74.0033 34.545 74.8668 34.969C75.7506 35.3727 76.6342 35.5747 77.5179 35.5747C78.1004 35.5747 78.6024 35.5444 79.0242 35.4838C79.466 35.4233 79.8375 35.3425 80.1388 35.2416C80.4602 35.1204 80.7313 35.0093 80.9522 34.9084C81.1732 34.7873 81.374 34.6762 81.5547 34.5753C81.7355 34.4541 81.9062 34.3633 82.0669 34.3027C82.1674 34.2624 82.2777 34.2522 82.3982 34.2724C82.5389 34.2724 82.6393 34.3229 82.6995 34.4238C82.8 34.5652 82.8703 34.6964 82.9104 34.8176C82.9506 34.9185 82.9706 35.0396 82.9706 35.181C82.9706 35.3627 82.7296 35.615 82.2476 35.9381C81.7656 36.241 81.113 36.5136 80.2894 36.7558C79.466 37.0184 78.5523 37.1496 77.548 37.1496ZM71.9145 28.9724H80.892C81.2937 28.9724 81.605 28.9321 81.8259 28.8513C82.0469 28.7504 82.1572 28.4475 82.1572 27.9427C82.1572 27.2764 81.9464 26.6707 81.5246 26.1256C81.123 25.5602 80.5707 25.1059 79.8677 24.7627C79.1648 24.4195 78.3614 24.2478 77.4576 24.2478C76.4535 24.2478 75.5196 24.4498 74.6559 24.8536C73.8124 25.2573 73.1396 25.8227 72.6375 26.5496C72.1355 27.2562 71.8945 28.0638 71.9145 28.9724ZM91.2852 37.089C90.7228 37.089 90.2107 37.0284 89.7488 36.9073C89.3069 36.7861 88.9153 36.6044 88.5739 36.3621C88.2324 36.1198 87.9413 35.817 87.7003 35.4536C87.4792 35.0901 87.3086 34.6661 87.1881 34.1816C87.0876 33.697 87.0375 33.1619 87.0375 32.5764V16.8278C87.0375 16.5856 87.0575 16.4038 87.0977 16.2827C87.158 16.1413 87.2484 16.0404 87.3689 15.9798C87.5094 15.9193 87.6801 15.889 87.881 15.889C88.1019 15.889 88.2726 15.9193 88.3931 15.9798C88.5336 16.0202 88.6342 16.101 88.6944 16.2221C88.7547 16.3433 88.7848 16.5149 88.7848 16.737V32.637C88.7848 33.0812 88.8349 33.4749 88.9354 33.8181C89.0358 34.1412 89.1864 34.4238 89.3873 34.6661C89.6082 34.8882 89.8693 35.0598 90.1706 35.181C90.4918 35.2819 90.8533 35.3324 91.2551 35.3324C91.4961 35.3324 91.6769 35.3627 91.7974 35.4233C91.9379 35.4636 92.0384 35.5545 92.0986 35.6958C92.1589 35.817 92.189 35.9886 92.189 36.2107C92.189 36.4327 92.1589 36.6145 92.0986 36.7558C92.0384 36.877 91.9379 36.9578 91.7974 36.9981C91.6769 37.0587 91.5061 37.089 91.2852 37.089ZM99.9146 37.089C99.6535 37.089 99.4426 37.0587 99.282 36.9981C99.1414 36.9376 99.0209 36.8064 98.9205 36.6044L93.2568 23.733C93.1162 23.3898 93.0961 23.1475 93.1966 23.0061C93.3171 22.8647 93.5078 22.7235 93.769 22.5821C94.01 22.461 94.2209 22.4307 94.4016 22.4913C94.6024 22.5316 94.7631 22.6932 94.8836 22.9758L99.9146 35.1204L104.855 23.3696C104.976 23.0869 105.116 22.8345 105.277 22.6124C105.458 22.3904 105.769 22.3904 106.211 22.6124C106.633 22.8144 106.813 23.0364 106.753 23.2787C106.713 23.521 106.643 23.7532 106.542 23.9753L100.939 36.5741C100.859 36.7558 100.738 36.887 100.577 36.9678C100.417 37.0487 100.196 37.089 99.9146 37.089ZM115.17 37.2101C114.165 37.2101 113.221 37.0184 112.338 36.6347C111.454 36.251 110.671 35.7261 109.988 35.0598C109.325 34.3936 108.803 33.6162 108.421 32.7278C108.04 31.8395 107.849 30.8905 107.849 29.881C107.849 28.8513 108.03 27.9024 108.391 27.0341C108.773 26.1458 109.295 25.3684 109.958 24.7021C110.641 24.0156 111.414 23.4907 112.277 23.1273C113.161 22.7436 114.105 22.5518 115.109 22.5518C116.455 22.5518 117.67 22.8749 118.755 23.521C119.839 24.1469 120.703 25.015 121.345 26.1256C121.988 27.2158 122.309 28.4576 122.309 29.8507C122.309 30.9006 122.119 31.8698 121.737 32.7581C121.375 33.6465 120.863 34.4238 120.201 35.0901C119.558 35.7564 118.805 36.2813 117.941 36.665C117.077 37.0284 116.154 37.2101 115.17 37.2101ZM115.109 35.5747C116.134 35.5747 117.057 35.3224 117.881 34.8176C118.724 34.2926 119.387 33.5961 119.869 32.7278C120.371 31.8395 120.622 30.8602 120.622 29.7901C120.622 28.6998 120.381 27.7307 119.899 26.8827C119.417 26.0347 118.755 25.3785 117.911 24.9141C117.088 24.4296 116.144 24.1873 115.079 24.1873C114.035 24.1873 113.091 24.4396 112.247 24.9444C111.424 25.429 110.761 26.0953 110.259 26.9433C109.777 27.7913 109.536 28.7504 109.536 29.8204C109.536 30.9107 109.777 31.8899 110.259 32.7581C110.761 33.6264 111.434 34.3127 112.277 34.8176C113.121 35.3224 114.065 35.5747 115.109 35.5747ZM131.706 37.089C130.803 37.089 130.039 37.0082 129.417 36.8467C128.814 36.6852 128.322 36.4327 127.941 36.0896C127.559 35.7464 127.288 35.2921 127.127 34.7267C126.967 34.1412 126.886 33.4244 126.886 32.5764V18.645C126.886 18.4027 126.906 18.221 126.946 18.0998C127.007 17.9585 127.097 17.8576 127.218 17.797C127.338 17.7364 127.499 17.7061 127.7 17.7061C127.92 17.7061 128.091 17.7364 128.212 17.797C128.352 17.8373 128.453 17.9181 128.513 18.0393C128.573 18.1604 128.603 18.3321 128.603 18.5541V32.637C128.603 33.2629 128.654 33.7676 128.754 34.1513C128.874 34.5147 129.045 34.7873 129.266 34.969C129.507 35.1507 129.828 35.2718 130.23 35.3324C130.632 35.3727 131.114 35.393 131.676 35.393C131.917 35.393 132.098 35.4233 132.218 35.4838C132.359 35.5242 132.459 35.605 132.52 35.7261C132.58 35.8473 132.61 36.0189 132.61 36.241C132.61 36.463 132.58 36.6347 132.52 36.7558C132.459 36.877 132.359 36.9578 132.218 36.9981C132.098 37.0587 131.927 37.089 131.706 37.089ZM125.018 23.0364L127.7 23.097L131.887 23.0364C132.108 23.0364 132.279 23.0667 132.399 23.1273C132.54 23.1676 132.64 23.2484 132.7 23.3696C132.761 23.4907 132.791 23.6522 132.791 23.8541C132.791 24.0762 132.761 24.2579 132.7 24.3993C132.66 24.5204 132.58 24.6113 132.459 24.6718C132.339 24.7122 132.168 24.7324 131.947 24.7324L127.7 24.6718L124.958 24.7324C124.637 24.7324 124.416 24.6718 124.295 24.5507C124.175 24.4093 124.115 24.1772 124.115 23.8541C124.115 23.5513 124.185 23.3393 124.325 23.2181C124.466 23.097 124.697 23.0364 125.018 23.0364Z" fill="#181D3D"/>
<path d="M137.478 37.0284C136.915 37.0284 136.504 36.9476 136.243 36.7861C135.982 36.6246 135.821 36.4025 135.761 36.1198C135.7 35.817 135.67 35.5041 135.67 35.181V17.7061C135.67 17.383 135.7 17.0904 135.761 16.8278C135.841 16.5452 136.012 16.323 136.273 16.1615C136.534 15.9798 136.945 15.889 137.508 15.889H143.895C144.778 15.889 145.642 16.0404 146.485 16.3433C147.329 16.6461 148.082 17.1004 148.745 17.7061C149.428 18.3118 149.96 19.0589 150.342 19.9473C150.743 20.8356 150.944 21.8755 150.944 23.0667C150.944 24.2378 150.743 25.2675 150.342 26.1558C149.96 27.0241 149.428 27.761 148.745 28.3667C148.062 28.9724 147.299 29.4267 146.455 29.7295C145.632 30.0324 144.768 30.1838 143.865 30.1838H139.316V35.2113C139.316 35.5344 139.276 35.8372 139.195 36.1198C139.135 36.4025 138.975 36.6246 138.713 36.7861C138.472 36.9476 138.06 37.0284 137.478 37.0284ZM139.316 26.489H143.895C144.518 26.489 145.079 26.3678 145.582 26.1255C146.103 25.863 146.525 25.4795 146.847 24.9747C147.169 24.4498 147.329 23.7935 147.329 23.0061C147.329 22.2995 147.178 21.6938 146.877 21.189C146.596 20.6641 146.194 20.2602 145.672 19.9775C145.17 19.6949 144.567 19.5535 143.865 19.5535H139.316V26.489ZM165.876 36.9981C165.294 36.9981 164.861 36.887 164.58 36.665C164.299 36.4429 164.158 36.1401 164.158 35.7564L164.369 34.757C164.209 35.0195 163.938 35.3324 163.556 35.6958C163.174 36.039 162.673 36.3521 162.05 36.6347C161.427 36.8972 160.673 37.0284 159.79 37.0284C158.847 37.0284 157.952 36.8366 157.109 36.453C156.286 36.0492 155.552 35.5041 154.91 34.8175C154.287 34.1109 153.786 33.3133 153.403 32.425C153.042 31.5164 152.861 30.5473 152.861 29.5175C152.861 28.5282 153.042 27.5995 153.403 26.7313C153.786 25.8429 154.298 25.0555 154.94 24.369C155.582 23.6825 156.316 23.1475 157.139 22.7638C157.983 22.3601 158.866 22.1581 159.79 22.1581C160.613 22.1581 161.306 22.2692 161.869 22.4913C162.451 22.7133 162.944 22.9961 163.345 23.3393C163.746 23.6624 164.078 24.0055 164.339 24.369L164.158 23.4907C164.158 23.0465 164.299 22.7133 164.58 22.4913C164.861 22.249 165.303 22.1278 165.906 22.1278C166.469 22.1278 166.87 22.2187 167.111 22.4004C167.352 22.5619 167.502 22.7941 167.563 23.097C167.623 23.3796 167.653 23.7027 167.653 24.0661V35.1507C167.653 35.4939 167.623 35.8069 167.563 36.0895C167.502 36.3722 167.342 36.5944 167.081 36.7558C166.84 36.9173 166.438 36.9981 165.876 36.9981ZM160.332 33.485C161.016 33.485 161.628 33.3133 162.17 32.9701C162.712 32.6269 163.144 32.1625 163.466 31.577C163.806 30.9713 163.978 30.305 163.978 29.5781C163.978 28.7907 163.806 28.1042 163.466 27.5187C163.125 26.9332 162.673 26.4789 162.11 26.1558C161.568 25.8126 160.955 25.641 160.272 25.641C159.529 25.641 158.866 25.8227 158.284 26.1861C157.702 26.5293 157.239 27.0038 156.898 27.6095C156.576 28.195 156.416 28.8613 156.416 29.6084C156.416 30.3353 156.587 30.9915 156.928 31.577C157.269 32.1625 157.732 32.6269 158.314 32.9701C158.917 33.3133 159.589 33.485 160.332 33.485ZM173.823 43.025C173.18 42.7424 172.809 42.4193 172.709 42.0558C172.607 41.7126 172.698 41.2482 172.98 40.6627L180.752 23.1575C181.033 22.5115 181.334 22.1278 181.656 22.0067C181.976 21.8653 182.469 21.9361 183.132 22.2187C183.754 22.5013 184.115 22.8144 184.217 23.1575C184.337 23.5007 184.266 23.9652 184.006 24.5507L176.173 42.1467C175.912 42.7927 175.62 43.1664 175.299 43.2673C174.978 43.3884 174.486 43.3076 173.823 43.025ZM176.625 35.605L169.666 24.8535C169.304 24.3084 169.154 23.8541 169.214 23.4907C169.293 23.1273 169.615 22.7739 170.178 22.4307C170.8 22.047 171.282 21.8956 171.624 21.9764C171.986 22.0572 172.347 22.3802 172.709 22.9455L178.222 31.577L176.625 35.605Z" fill="#9582F2"/>
</g>
<defs>
<filter id="filter0_d_70_3950" x="-51.7839" y="-47.4286" width="156.288" height="156.481" filterUnits="userSpaceOnUse" color-interpolation-filters="sRGB">
<feFlood flood-opacity="0" result="BackgroundImageFix"/>
<feColorMatrix in="SourceAlpha" type="matrix" values="0 0 0 0 0 0 0 0 0 0 0 0 0 0 0 0 0 0 127 0" result="hardAlpha"/>
<feOffset dy="5"/>
<feGaussianBlur stdDeviation="30"/>
<feComposite in2="hardAlpha" operator="out"/>
<feColorMatrix type="matrix" values="0 0 0 0 0 0 0 0 0 0 0 0 0 0 0 0 0 0 0.1 0"/>
<feBlend mode="normal" in2="BackgroundImageFix" result="effect1_dropShadow_70_3950"/>
<feBlend mode="normal" in="SourceGraphic" in2="effect1_dropShadow_70_3950" result="shape"/>
</filter>
<clipPath id="clip0_70_3950">
<rect width="185" height="53" fill="white"/>
</clipPath>
</defs>
</svg>
