<svg width="75" height="75" viewBox="0 0 75 75" fill="none" xmlns="http://www.w3.org/2000/svg">
<mask id="mask0_2512_4218" style="mask-type:luminance" maskUnits="userSpaceOnUse" x="0" y="0" width="75" height="75">
<path d="M75 0H0V75H75V0Z" fill="white"/>
</mask>
<g mask="url(#mask0_2512_4218)">
<path d="M19.9572 3.83239C20.0801 4.75465 20.2171 5.78308 20.3657 6.86286M8.79596 9.68555C9.48461 10.3122 10.2511 11.0096 11.0571 11.743M4.00784 21.3413C4.94075 21.3797 5.97461 21.4226 7.0633 21.4628" stroke="#5842C4" stroke-width="2.5875" stroke-linecap="round" stroke-linejoin="round"/>
<path d="M36.962 66.0008C29.2706 66.0214 21.8905 62.9632 16.4668 57.5072C10.9858 52.0237 7.96973 44.7379 7.96973 36.9877C7.96973 29.2376 10.9858 21.9518 16.4668 16.472C21.9438 10.9923 29.2227 7.97472 36.9726 7.97472C44.6678 7.95372 52.0519 11.0133 57.4787 16.472C66.2861 25.2391 68.5075 38.657 62.9958 49.7969L64.2319 59.2552C64.3982 60.5293 64.0086 61.8135 63.1626 62.7803C62.1806 63.9044 60.7016 64.4623 59.2224 64.2672L49.7688 63.0304C45.781 64.9819 41.401 65.9977 36.962 66.0008Z" fill="#F03030" fill-opacity="0.2"/>
<path d="M37.0187 46.4089C36.0178 46.4089 35.2063 45.5971 35.2063 44.5956C35.2063 41.466 36.5946 38.4343 38.9181 36.4904C39.3096 36.164 39.7301 35.834 40.1542 35.5039C41.3795 34.5465 42.6482 33.5599 43.3045 32.4175C44.2106 30.8399 43.9422 28.566 42.6627 27.0029C41.046 25.0264 38.1787 24.816 37.0187 24.816C30.4214 24.816 30.1388 30.1327 30.1277 30.7383C30.1097 31.7357 29.1853 32.4175 28.2974 32.5263C27.3018 32.5202 26.4989 31.7089 26.5029 30.7129C26.5138 27.4199 28.7286 21.1934 37.0187 21.1934C40.5602 21.1934 43.6379 22.4734 45.4684 24.7074C47.7013 27.431 48.1073 31.3476 46.4507 34.2272C45.443 35.9823 43.8191 37.2482 42.3873 38.3686C41.9994 38.6603 41.6186 38.9613 41.2455 39.2717C39.7009 40.6074 38.8187 42.5532 38.8311 44.5956C38.8311 45.0766 38.6402 45.5379 38.3003 45.8779C37.9605 46.2178 37.4995 46.4089 37.0187 46.4089Z" fill="#F03030"/>
<path d="M38.6492 50.7508C38.9515 51.4402 38.8001 52.245 38.268 52.7773C37.7358 53.3098 36.9317 53.4612 36.2424 53.1587C35.8232 52.9861 35.4905 52.6532 35.318 52.2341C35.0156 51.5444 35.167 50.7397 35.6992 50.2073C36.2313 49.6748 37.0357 49.5234 37.7247 49.8258C38.138 49.9926 38.4862 50.341 38.6492 50.7508Z" fill="#F03030"/>
</g>
</svg>
