<svg width="20" height="20" viewBox="0 0 20 20" fill="none" xmlns="http://www.w3.org/2000/svg">
<g clip-path="url(#clip0_315_780)">
<path d="M9.99996 18.3333C5.39758 18.3333 1.66663 14.6023 1.66663 9.99996C1.66663 5.39758 5.39758 1.66663 9.99996 1.66663C12.726 1.66663 15.1464 2.97561 16.6668 4.99932L14.409 4.99938C13.2339 3.96245 11.6904 3.33329 9.99996 3.33329C6.31806 3.33329 3.33329 6.31806 3.33329 9.99996C3.33329 13.6819 6.31806 16.6666 9.99996 16.6666C11.6908 16.6666 13.2346 16.0371 14.4099 14.9998H16.6674C15.147 17.024 12.7264 18.3333 9.99996 18.3333ZM15.8333 13.3333V10.8333H9.16663V9.16663H15.8333V6.66663L20 9.99996L15.8333 13.3333Z" fill="#9582F2"/>
<mask id="mask0_315_780" style="mask-type:alpha" maskUnits="userSpaceOnUse" x="1" y="1" width="19" height="18">
<path d="M9.99996 18.3333C5.39758 18.3333 1.66663 14.6023 1.66663 9.99996C1.66663 5.39758 5.39758 1.66663 9.99996 1.66663C12.726 1.66663 15.1464 2.97561 16.6668 4.99932L14.409 4.99938C13.2339 3.96245 11.6904 3.33329 9.99996 3.33329C6.31806 3.33329 3.33329 6.31806 3.33329 9.99996C3.33329 13.6819 6.31806 16.6666 9.99996 16.6666C11.6908 16.6666 13.2346 16.0371 14.4099 14.9998H16.6674C15.147 17.024 12.7264 18.3333 9.99996 18.3333ZM15.8333 13.3333V10.8333H9.16663V9.16663H15.8333V6.66663L20 9.99996L15.8333 13.3333Z" fill="#9582F2"/>
</mask>
<g mask="url(#mask0_315_780)">
<rect x="7" y="6" width="13" height="8" fill="#13D3CE"/>
</g>
</g>
<defs>
<clipPath id="clip0_315_780">
<rect width="20" height="20" fill="white"/>
</clipPath>
</defs>
</svg>
