<svg width="25" height="26" viewBox="0 0 25 26" fill="none" xmlns="http://www.w3.org/2000/svg">
<path d="M11.5 11.5C14.1464 11.5 16.2917 9.35466 16.2917 6.70829C16.2917 4.06193 14.1464 1.91663 11.5 1.91663C8.85368 1.91663 6.70837 4.06193 6.70837 6.70829C6.70837 9.35466 8.85368 11.5 11.5 11.5Z" fill="#9582F2"/>
<path d="M11.4999 13.8959C6.6987 13.8959 2.7887 17.1159 2.7887 21.0834C2.7887 21.3517 2.99953 21.5625 3.26786 21.5625H19.732C20.0004 21.5625 20.2112 21.3517 20.2112 21.0834C20.2112 17.1159 16.3012 13.8959 11.4999 13.8959Z" fill="#9582F2"/>
<path d="M22.4012 17.5987L17.0204 22.9795C16.8187 23.1812 16.4795 23.1537 16.3145 22.9154C15.7462 22.0858 15.4116 21.105 15.4116 20.0966V18.0845C15.4116 17.7087 15.6958 17.2825 16.0441 17.1404L18.597 16.0954C19.1745 15.857 19.8162 15.857 20.3937 16.0954L22.2454 16.8516C22.5525 16.9754 22.6304 17.3695 22.4012 17.5987Z" fill="#13D3CE"/>
<path d="M22.832 18.2266C23.13 17.9745 23.5837 18.1899 23.5837 18.5795V20.0966C23.5837 22.3379 21.9566 24.437 19.7337 25.0512C19.5825 25.0924 19.4175 25.0924 19.2616 25.0512C18.6108 24.8679 18.0058 24.5608 17.4879 24.1575C17.2679 23.9879 17.245 23.667 17.4375 23.47C18.4366 22.4479 21.3608 19.4687 22.832 18.2266Z" fill="#211C3A"/>
</svg>
