<svg width="21" height="20" viewBox="0 0 21 20" fill="none" xmlns="http://www.w3.org/2000/svg">
<path d="M10.9681 9.05817C10.8848 9.04984 10.7848 9.04984 10.6931 9.05817C8.70977 8.9915 7.13477 7.3665 7.13477 5.3665C7.13477 3.32484 8.78477 1.6665 10.8348 1.6665C12.8764 1.6665 14.5348 3.32484 14.5348 5.3665C14.5264 7.3665 12.9514 8.9915 10.9681 9.05817Z" stroke="#70707B" stroke-linecap="round" stroke-linejoin="round"/>
<path d="M6.80156 12.1335C4.7849 13.4835 4.7849 15.6835 6.80156 17.0252C9.09323 18.5585 12.8516 18.5585 15.1432 17.0252C17.1599 15.6752 17.1599 13.4752 15.1432 12.1335C12.8599 10.6085 9.10156 10.6085 6.80156 12.1335Z" stroke="#70707B" stroke-linecap="round" stroke-linejoin="round"/>
</svg>
