<svg width="21" height="20" viewBox="0 0 21 20" fill="none" xmlns="http://www.w3.org/2000/svg">
<path d="M10.8343 1.66699C8.65098 1.66699 6.87598 3.44199 6.87598 5.62533C6.87598 7.76699 8.55098 9.50033 10.7343 9.57533C10.801 9.56699 10.8676 9.56699 10.9176 9.57533C10.9343 9.57533 10.9426 9.57533 10.9593 9.57533C10.9676 9.57533 10.9676 9.57533 10.976 9.57533C13.1093 9.50033 14.7843 7.76699 14.7926 5.62533C14.7926 3.44199 13.0176 1.66699 10.8343 1.66699Z" fill="#604BCA"/>
<path d="M15.0668 11.8002C12.7418 10.2502 8.95013 10.2502 6.60846 11.8002C5.55013 12.5002 4.9668 13.4585 4.9668 14.4835C4.9668 15.5085 5.55013 16.4585 6.60013 17.1585C7.7668 17.9419 9.30013 18.3335 10.8335 18.3335C12.3668 18.3335 13.9001 17.9419 15.0668 17.1585C16.1168 16.4502 16.7001 15.5002 16.7001 14.4669C16.6918 13.4502 16.1168 12.4919 15.0668 11.8002ZM12.3585 15.0585H9.3168C9.00013 15.0585 8.7418 14.8002 8.7418 14.4835C8.7418 14.1669 9.00013 13.9085 9.3168 13.9085H12.3585C12.6751 13.9085 12.9335 14.1669 12.9335 14.4835C12.9335 14.8002 12.6751 15.0585 12.3585 15.0585Z" fill="#604BCA"/>
</svg>
