<svg width="262" height="162" viewBox="0 0 262 162" fill="none" xmlns="http://www.w3.org/2000/svg">
<g clip-path="url(#clip0_70_3925)">
<g filter="url(#filter0_d_70_3925)">
<path d="M149.069 14.6546H113.197C103.658 14.6546 95.9249 22.4086 95.9249 31.9737V67.9441C95.9249 77.5091 103.658 85.2632 113.197 85.2632H149.069C158.608 85.2632 166.341 77.5091 166.341 67.9441V31.9737C166.341 22.4086 158.608 14.6546 149.069 14.6546Z" fill="white"/>
</g>
<path d="M107.085 33.4277L119.494 33.668C120.67 33.6907 121.717 34.4175 122.153 35.5129L132.701 62.0417L120.068 66.9598L107.085 33.4277Z" fill="#13D3CE"/>
<mask id="mask0_70_3925" style="mask-type:alpha" maskUnits="userSpaceOnUse" x="107" y="33" width="26" height="34">
<path d="M107.085 33.4277L119.494 33.668C120.67 33.6907 121.717 34.4175 122.153 35.5129L132.701 62.0417L120.068 66.9598L107.085 33.4277Z" fill="#13D3CE"/>
</mask>
<g mask="url(#mask0_70_3925)">
<path d="M124.436 34.1817L120.21 66.0352C120.161 66.4051 120.496 66.7096 120.858 66.6244L132.144 63.9711C133.479 63.6116 133.859 61.8256 133.882 60.9775C133.853 56.4634 135.216 55.1791 135.951 55.0835C135.987 55.0787 136.023 55.0736 136.058 55.0643L143.09 53.2013C149.874 50.5581 151.223 43.7584 151.049 40.6889L150.523 37.7191C150.516 37.6802 150.505 37.6413 150.49 37.605C147.143 29.683 140.427 28.4323 137.481 28.799L127.245 31.1965C125.145 31.6691 124.498 33.3835 124.436 34.1817Z" fill="#003636" fill-opacity="0.08"/>
</g>
<path d="M131.348 35.7114L120.375 65.9034C120.248 66.2537 120.51 66.6236 120.882 66.6188L132.473 66.4666C133.854 66.4037 134.609 64.7419 134.813 63.9186C135.755 59.5046 137.362 58.5449 138.1 58.6102C138.136 58.6134 138.173 58.6163 138.209 58.6147L145.476 58.3147C152.668 57.1999 155.447 50.8512 155.937 47.8164L156.062 44.8026C156.064 44.7632 156.061 44.7227 156.053 44.684C154.488 36.2251 148.199 33.5524 145.243 33.2739L134.732 33.4032C132.58 33.4109 131.579 34.9454 131.348 35.7114Z" fill="#9582F2"/>
<path d="M21.1034 148.79C20.5968 148.79 20.1876 148.731 19.8758 148.614C19.564 148.496 19.3302 148.243 19.1743 147.852L4.03358 109.75C3.76076 109.085 3.74129 108.655 3.97512 108.46C4.20895 108.265 4.57918 108.03 5.08583 107.757C5.3976 107.6 5.68989 107.522 5.96271 107.522C6.23552 107.483 6.46935 107.542 6.66421 107.698C6.89804 107.854 7.09289 108.128 7.24879 108.519L21.1034 143.924L34.8412 109.163C34.9971 108.773 35.1529 108.421 35.3088 108.108C35.5036 107.796 35.7571 107.6 36.0688 107.522C36.4195 107.444 36.8678 107.542 37.4133 107.815C38.2318 108.206 38.5825 108.636 38.4656 109.105C38.3877 109.574 38.2512 110.023 38.0564 110.453L23.091 147.793C22.9351 148.145 22.7013 148.399 22.3895 148.555C22.0778 148.711 21.649 148.79 21.1034 148.79ZM53.4921 148.907C51.3488 148.907 49.3806 148.555 47.5878 147.852C45.834 147.148 44.3141 146.152 43.028 144.862C41.781 143.573 40.8066 142.048 40.1051 140.29C39.4036 138.531 39.0528 136.577 39.0528 134.428C39.0528 131.888 39.6571 129.602 40.865 127.57C42.0733 125.537 43.7492 123.935 45.8925 122.763C48.036 121.551 50.4913 120.946 53.2582 120.946C55.051 120.946 56.6879 121.219 58.1687 121.766C59.6499 122.313 60.9359 123.056 62.027 123.994C63.1183 124.932 63.9561 126.006 64.5407 127.218C65.1643 128.43 65.476 129.68 65.476 130.97C65.476 132.885 65.028 134.194 64.1315 134.897C63.2743 135.561 62.222 135.893 60.9747 135.893H42.5603C42.4825 137.965 42.9892 139.743 44.0802 141.228C45.2106 142.713 46.6136 143.866 48.2893 144.686C50.0042 145.468 51.7189 145.859 53.4336 145.859C54.564 145.859 55.5381 145.8 56.3565 145.683C57.214 145.566 57.9349 145.409 58.5195 145.214C59.1431 144.979 59.6693 144.764 60.0979 144.569C60.5267 144.335 60.9163 144.12 61.267 143.924C61.6178 143.69 61.9491 143.514 62.2608 143.397C62.4559 143.319 62.67 143.299 62.9039 143.338C63.1768 143.338 63.3715 143.436 63.4884 143.631C63.6835 143.905 63.8198 144.159 63.8977 144.393C63.9758 144.588 64.0146 144.823 64.0146 145.097C64.0146 145.448 63.5469 145.937 62.6116 146.562C61.6762 147.148 60.4098 147.676 58.8118 148.145C57.214 148.653 55.4408 148.907 53.4921 148.907ZM42.5603 133.08H59.9809C60.7606 133.08 61.3645 133.002 61.7932 132.845C62.222 132.65 62.4362 132.064 62.4362 131.087C62.4362 129.797 62.027 128.625 61.2086 127.57C60.4292 126.475 59.3576 125.596 57.9934 124.932C56.6294 124.268 55.0704 123.935 53.3167 123.935C51.3682 123.935 49.5559 124.326 47.8801 125.108C46.2432 125.889 44.9377 126.983 43.9633 128.39C42.9892 129.758 42.5215 131.321 42.5603 133.08ZM80.1488 148.79C79.0575 148.79 78.0637 148.672 77.1674 148.438C76.31 148.203 75.55 147.852 74.8876 147.383C74.2249 146.914 73.6599 146.328 73.1923 145.624C72.7634 144.921 72.4323 144.1 72.1985 143.162C72.0034 142.224 71.9062 141.189 71.9062 140.055V109.574C71.9062 109.105 71.945 108.753 72.0231 108.519C72.14 108.245 72.3154 108.05 72.5492 107.933C72.8219 107.815 73.1532 107.757 73.543 107.757C73.9716 107.757 74.303 107.815 74.5368 107.933C74.8094 108.011 75.0045 108.167 75.1214 108.401C75.2383 108.636 75.2968 108.968 75.2968 109.398V140.173C75.2968 141.032 75.394 141.794 75.5891 142.459C75.7838 143.084 76.0761 143.631 76.466 144.1C76.8946 144.53 77.4013 144.862 77.9859 145.097C78.6092 145.292 79.3107 145.39 80.0904 145.39C80.558 145.39 80.9088 145.448 81.1426 145.566C81.4152 145.644 81.6103 145.819 81.7272 146.093C81.8441 146.328 81.9026 146.66 81.9026 147.09C81.9026 147.519 81.8441 147.871 81.7272 148.145C81.6103 148.379 81.4152 148.536 81.1426 148.614C80.9088 148.731 80.5774 148.79 80.1488 148.79ZM96.894 148.79C96.3872 148.79 95.978 148.731 95.6663 148.614C95.3935 148.496 95.1596 148.243 94.9648 147.852L83.9747 122.939C83.7018 122.275 83.6627 121.806 83.8577 121.532C84.0916 121.258 84.4617 120.985 84.9685 120.711C85.4361 120.477 85.8453 120.418 86.1961 120.535C86.5856 120.614 86.8976 120.926 87.1314 121.473L96.894 144.979L106.481 122.235C106.715 121.688 106.988 121.2 107.3 120.77C107.65 120.34 108.254 120.34 109.112 120.77C109.93 121.161 110.281 121.591 110.164 122.06C110.086 122.528 109.95 122.978 109.755 123.408L98.8816 147.793C98.7256 148.145 98.4917 148.399 98.1801 148.555C97.8681 148.711 97.4395 148.79 96.894 148.79ZM126.496 149.024C124.547 149.024 122.715 148.653 121.001 147.91C119.286 147.168 117.766 146.152 116.441 144.862C115.155 143.573 114.142 142.068 113.401 140.348C112.66 138.629 112.29 136.792 112.29 134.838C112.29 132.845 112.641 131.009 113.343 129.328C114.083 127.609 115.096 126.104 116.382 124.815C117.708 123.486 119.208 122.47 120.884 121.766C122.598 121.024 124.43 120.653 126.379 120.653C128.99 120.653 131.348 121.278 133.452 122.528C135.557 123.74 137.233 125.42 138.48 127.57C139.727 129.68 140.35 132.083 140.35 134.78C140.35 136.812 139.98 138.688 139.24 140.407C138.538 142.127 137.544 143.631 136.258 144.921C135.011 146.21 133.55 147.226 131.874 147.969C130.198 148.672 128.405 149.024 126.496 149.024ZM126.379 145.859C128.366 145.859 130.159 145.37 131.757 144.393C133.394 143.377 134.68 142.029 135.615 140.348C136.59 138.629 137.077 136.734 137.077 134.663C137.077 132.552 136.609 130.676 135.674 129.035C134.738 127.394 133.452 126.124 131.815 125.225C130.218 124.287 128.386 123.818 126.32 123.818C124.294 123.818 122.462 124.307 120.825 125.284C119.227 126.221 117.941 127.511 116.967 129.152C116.032 130.794 115.564 132.65 115.564 134.721C115.564 136.831 116.032 138.727 116.967 140.407C117.941 142.088 119.247 143.416 120.884 144.393C122.521 145.37 124.352 145.859 126.379 145.859ZM158.585 148.79C156.831 148.79 155.35 148.633 154.142 148.321C152.973 148.008 152.018 147.519 151.278 146.855C150.537 146.191 150.011 145.312 149.699 144.217C149.388 143.084 149.232 141.697 149.232 140.055V113.091C149.232 112.622 149.271 112.27 149.348 112.036C149.465 111.762 149.641 111.567 149.875 111.45C150.108 111.332 150.42 111.274 150.81 111.274C151.239 111.274 151.57 111.332 151.804 111.45C152.077 111.528 152.271 111.684 152.388 111.919C152.505 112.153 152.564 112.485 152.564 112.915V140.173C152.564 141.384 152.661 142.361 152.856 143.104C153.09 143.807 153.421 144.335 153.85 144.686C154.317 145.038 154.941 145.272 155.72 145.39C156.5 145.468 157.435 145.507 158.526 145.507C158.994 145.507 159.345 145.566 159.579 145.683C159.852 145.761 160.046 145.917 160.163 146.152C160.28 146.386 160.339 146.718 160.339 147.148C160.339 147.578 160.28 147.91 160.163 148.145C160.046 148.379 159.852 148.536 159.579 148.614C159.345 148.731 159.013 148.79 158.585 148.79ZM145.607 121.591L150.81 121.708L158.936 121.591C159.364 121.591 159.696 121.649 159.929 121.766C160.202 121.845 160.397 122.001 160.514 122.235C160.631 122.47 160.689 122.782 160.689 123.173C160.689 123.603 160.631 123.955 160.514 124.228C160.436 124.463 160.28 124.639 160.046 124.756C159.812 124.834 159.481 124.873 159.053 124.873L150.81 124.756L145.49 124.873C144.867 124.873 144.438 124.756 144.204 124.522C143.97 124.248 143.853 123.799 143.853 123.173C143.853 122.587 143.99 122.177 144.263 121.942C144.535 121.708 144.983 121.591 145.607 121.591Z" fill="#181D3D"/>
<path d="M169.784 148.672C168.693 148.672 167.894 148.516 167.388 148.203C166.881 147.891 166.569 147.461 166.452 146.914C166.335 146.328 166.277 145.722 166.277 145.097V111.274C166.277 110.648 166.335 110.082 166.452 109.574C166.608 109.027 166.939 108.597 167.446 108.284C167.953 107.933 168.752 107.757 169.843 107.757H182.236C183.951 107.757 185.627 108.05 187.264 108.636C188.9 109.222 190.362 110.101 191.648 111.274C192.973 112.446 194.006 113.892 194.746 115.612C195.526 117.331 195.915 119.344 195.915 121.649C195.915 123.916 195.526 125.909 194.746 127.628C194.006 129.309 192.973 130.735 191.648 131.907C190.323 133.08 188.842 133.959 187.205 134.545C185.607 135.131 183.931 135.425 182.178 135.425H173.35V145.155C173.35 145.781 173.273 146.367 173.117 146.914C173 147.461 172.688 147.891 172.181 148.203C171.714 148.516 170.915 148.672 169.784 148.672ZM173.35 128.273H182.236C183.444 128.273 184.535 128.039 185.51 127.57C186.523 127.062 187.341 126.319 187.965 125.342C188.589 124.326 188.9 123.056 188.9 121.532C188.9 120.164 188.608 118.992 188.023 118.015C187.478 116.999 186.698 116.217 185.685 115.67C184.711 115.123 183.542 114.849 182.178 114.849H173.35V128.273ZM224.889 148.614C223.759 148.614 222.921 148.399 222.376 147.969C221.83 147.539 221.557 146.953 221.557 146.21L221.966 144.276C221.655 144.784 221.129 145.39 220.388 146.093C219.648 146.757 218.673 147.363 217.465 147.91C216.257 148.418 214.796 148.672 213.081 148.672C211.249 148.672 209.515 148.301 207.878 147.559C206.28 146.777 204.858 145.722 203.61 144.393C202.402 143.025 201.428 141.482 200.687 139.762C199.986 138.004 199.635 136.128 199.635 134.135C199.635 132.22 199.986 130.423 200.687 128.742C201.428 127.023 202.422 125.499 203.669 124.17C204.916 122.841 206.339 121.806 207.936 121.063C209.573 120.282 211.288 119.891 213.081 119.891C214.679 119.891 216.023 120.106 217.114 120.535C218.245 120.965 219.199 121.513 219.979 122.177C220.758 122.802 221.401 123.466 221.908 124.17L221.557 122.47C221.557 121.61 221.83 120.965 222.376 120.535C222.921 120.067 223.779 119.832 224.948 119.832C226.039 119.832 226.818 120.008 227.286 120.36C227.754 120.672 228.046 121.122 228.163 121.708C228.28 122.255 228.338 122.88 228.338 123.584V145.038C228.338 145.702 228.28 146.308 228.163 146.855C228.046 147.402 227.734 147.832 227.228 148.145C226.76 148.457 225.981 148.614 224.889 148.614ZM214.133 141.814C215.458 141.814 216.647 141.482 217.699 140.817C218.751 140.153 219.589 139.254 220.213 138.121C220.875 136.949 221.206 135.659 221.206 134.252C221.206 132.728 220.875 131.399 220.213 130.266C219.55 129.133 218.673 128.254 217.582 127.628C216.53 126.964 215.341 126.632 214.016 126.632C212.574 126.632 211.288 126.983 210.158 127.687C209.028 128.351 208.131 129.27 207.469 130.442C206.845 131.575 206.533 132.865 206.533 134.311C206.533 135.718 206.865 136.988 207.527 138.121C208.19 139.254 209.086 140.153 210.216 140.817C211.385 141.482 212.691 141.814 214.133 141.814ZM240.311 160.279C239.064 159.732 238.343 159.106 238.148 158.403C237.953 157.739 238.128 156.84 238.674 155.707L253.756 121.825C254.302 120.575 254.887 119.832 255.51 119.598C256.134 119.324 257.088 119.461 258.374 120.008C259.583 120.555 260.284 121.161 260.479 121.825C260.713 122.489 260.577 123.388 260.07 124.522L244.871 158.579C244.364 159.829 243.799 160.552 243.175 160.748C242.552 160.982 241.597 160.826 240.311 160.279ZM245.747 145.917L232.244 125.108C231.542 124.053 231.25 123.173 231.367 122.47C231.523 121.766 232.146 121.082 233.237 120.418C234.446 119.676 235.381 119.383 236.043 119.539C236.745 119.695 237.446 120.32 238.148 121.415L248.846 138.121L245.747 145.917Z" fill="#9582F2"/>
</g>
<defs>
<filter id="filter0_d_70_3925" x="35.9249" y="-40.3454" width="190.416" height="190.609" filterUnits="userSpaceOnUse" color-interpolation-filters="sRGB">
<feFlood flood-opacity="0" result="BackgroundImageFix"/>
<feColorMatrix in="SourceAlpha" type="matrix" values="0 0 0 0 0 0 0 0 0 0 0 0 0 0 0 0 0 0 127 0" result="hardAlpha"/>
<feOffset dy="5"/>
<feGaussianBlur stdDeviation="30"/>
<feComposite in2="hardAlpha" operator="out"/>
<feColorMatrix type="matrix" values="0 0 0 0 0 0 0 0 0 0 0 0 0 0 0 0 0 0 0.1 0"/>
<feBlend mode="normal" in2="BackgroundImageFix" result="effect1_dropShadow_70_3925"/>
<feBlend mode="normal" in="SourceGraphic" in2="effect1_dropShadow_70_3925" result="shape"/>
</filter>
<clipPath id="clip0_70_3925">
<rect width="262" height="162" fill="white"/>
</clipPath>
</defs>
</svg>
