<svg width="119" height="118" viewBox="0 0 119 118" fill="none" xmlns="http://www.w3.org/2000/svg">
<mask id="mask0_2517_1163" style="mask-type:luminance" maskUnits="userSpaceOnUse" x="0" y="0" width="119" height="118">
<path d="M118.5 0H0.5V118H118.5V0Z" fill="white"/>
</mask>
<g mask="url(#mask0_2517_1163)">
<path d="M69.4083 22.3272L74.6345 26.918C75.0429 27.2768 75.5356 27.5264 76.0668 27.6436L82.8671 29.1419C83.9219 29.3743 84.7897 30.1191 85.1758 31.1243L87.6664 37.6041C87.8609 38.1102 88.1814 38.5592 88.5974 38.9086L93.9261 43.3814C94.7525 44.0753 95.174 45.1361 95.0474 46.2038L94.2312 53.0876C94.1674 53.6254 94.242 54.1707 94.4479 54.6724L97.0841 61.0952C97.4927 62.0914 97.3716 63.2247 96.761 64.1105L92.8252 69.8221C92.5179 70.2684 92.3295 70.785 92.2779 71.324L91.6175 78.2249C91.5151 79.2957 90.8788 80.2419 89.9243 80.7428L83.7708 83.9732C83.29 84.2255 82.8818 84.5955 82.5844 85.0485L78.7792 90.847C78.189 91.7463 77.1832 92.2889 76.1033 92.2903L69.1416 92.2997C68.5978 92.3002 68.0634 92.4386 67.5884 92.7017L61.5097 96.0694C60.5669 96.5917 59.4224 96.606 58.4645 96.1075L52.2895 92.8934C51.8071 92.6423 51.2687 92.5177 50.7252 92.5305L43.7657 92.6957C42.6861 92.7214 41.665 92.2044 41.0485 91.32L37.0748 85.619C36.7645 85.1739 36.3455 84.8141 35.8576 84.5739L29.6118 81.499C28.6429 81.022 27.979 80.0922 27.8454 79.0246L26.9831 72.143C26.9158 71.6054 26.7125 71.093 26.3922 70.6549L22.2907 65.0442C21.6545 64.1737 21.5 63.044 21.8795 62.038L24.3266 55.5516C24.5177 55.045 24.5763 54.4978 24.4968 53.9618L23.4795 47.1008C23.3216 46.0366 23.7119 44.9658 24.5177 44.2517L29.7133 39.6467C30.1191 39.287 30.4264 38.8305 30.606 38.3194L32.9058 31.7797C33.2624 30.7651 34.1079 29.9987 35.1558 29.74L41.9096 28.0715C42.4372 27.9413 42.9225 27.6794 43.3202 27.3107L48.4101 22.5905C49.1996 21.8582 50.3068 21.5716 51.3563 21.8275L58.1212 23.4779C58.6496 23.6067 59.2022 23.6001 59.7268 23.458L66.4407 21.6384C67.4824 21.3561 68.5976 21.6151 69.4083 22.3272Z" fill="#099894"/>
<path d="M43.0703 59.3974C44.755 61.0821 53.8443 70.1714 53.8443 70.1714C53.8443 70.1714 68.9597 55.0556 74.3263 49.689" stroke="white" stroke-width="4.13" stroke-miterlimit="10"/>
<mask id="mask1_2517_1163" style="mask-type:luminance" maskUnits="userSpaceOnUse" x="4" y="3" width="111" height="112">
<path d="M4.03613 3.53906H114.956V114.459H4.03613V3.53906Z" fill="white"/>
</mask>
<g mask="url(#mask1_2517_1163)">
<path d="M57.9268 9.00664C57.9268 7.31973 57.9268 6.03564 57.9268 6.03564" stroke="#099894" stroke-width="2.2184" stroke-miterlimit="10"/>
<path d="M58.0176 109.097C58.0176 109.097 58.0176 107.813 58.0176 106.126" stroke="#099894" stroke-width="2.2184" stroke-miterlimit="10"/>
<path d="M106.531 57.521C108.218 57.521 109.502 57.521 109.502 57.521" stroke="#099894" stroke-width="2.2184" stroke-miterlimit="10"/>
<path d="M6.44141 57.6128C6.44141 57.6128 7.72549 57.6128 9.4124 57.6128" stroke="#099894" stroke-width="2.2184" stroke-miterlimit="10"/>
<path d="M92.3438 91.8716C93.5365 93.0643 94.4446 93.9724 94.4446 93.9724" stroke="#099894" stroke-width="2.2184" stroke-miterlimit="10"/>
<path d="M21.499 21.1616C21.499 21.1616 22.4069 22.0697 23.5998 23.2624" stroke="#099894" stroke-width="2.2184" stroke-miterlimit="10"/>
<path d="M92.2773 23.1965C93.4701 22.0036 94.3782 21.0957 94.3782 21.0957" stroke="#099894" stroke-width="2.2184" stroke-miterlimit="10"/>
<path d="M21.5674 94.0373C21.5674 94.0373 22.4753 93.1293 23.6682 91.9365" stroke="#099894" stroke-width="2.2184" stroke-miterlimit="10"/>
</g>
</g>
</svg>
