<svg width="152" height="152" viewBox="0 0 152 152" fill="none" xmlns="http://www.w3.org/2000/svg">
<circle opacity="0.25" cx="76" cy="76" r="76" fill="#0DDB77"/>
<circle opacity="0.3" cx="76.5" cy="75.5" r="64.5" fill="#0DDB77"/>
<path fill-rule="evenodd" clip-rule="evenodd" d="M76 20.0833C45.1188 20.0833 20.0834 45.1187 20.0834 76C20.0834 106.881 45.1188 131.917 76 131.917C106.881 131.917 131.917 106.881 131.917 76C131.917 45.1187 106.881 20.0833 76 20.0833ZM100.237 66.545C100.684 66.0348 101.023 65.4406 101.237 64.7972C101.45 64.1538 101.532 63.4742 101.479 62.7985C101.426 62.1228 101.238 61.4645 100.927 60.8625C100.615 60.2604 100.186 59.7267 99.6657 59.2928C99.145 58.8589 98.5428 58.5335 97.8945 58.3357C97.2461 58.138 96.5648 58.0719 95.8905 58.1414C95.2163 58.2108 94.5627 58.4144 93.9683 58.7402C93.3739 59.066 92.8507 59.5073 92.4294 60.0383L70.571 86.2632L59.2606 74.9477C58.3019 74.0218 57.0178 73.5094 55.685 73.521C54.3522 73.5326 53.0772 74.0672 52.1347 75.0097C51.1922 75.9521 50.6576 77.2271 50.646 78.5599C50.6344 79.8928 51.1468 81.1768 52.0728 82.1356L67.3228 97.3856C67.8223 97.8847 68.4203 98.2744 69.0787 98.5296C69.737 98.7849 70.4414 98.9002 71.1468 98.8681C71.8522 98.8361 72.5433 98.6574 73.1758 98.3435C73.8083 98.0296 74.3685 97.5874 74.8207 97.045L100.237 66.545Z" fill="white"/>
<path d="M54.65 78.2875L70.6625 94.3L97.35 62.275" stroke="#0DDB77" stroke-width="10" stroke-linecap="round" stroke-linejoin="round"/>
</svg>
