<svg width="21" height="20" viewBox="0 0 21 20" fill="none" xmlns="http://www.w3.org/2000/svg">
<path d="M6.22051 5.73488C7.20755 4.74457 8.50752 4.12726 9.89879 3.9882C11.2901 3.84914 12.6865 4.19693 13.85 4.97229C15.0135 5.74765 15.8721 6.90256 16.2794 8.24014C16.6866 9.57772 16.6174 11.0151 16.0834 12.3074C15.5493 13.5996 14.5837 14.6666 13.351 15.3264C12.1183 15.9863 10.6949 16.1982 9.32343 15.926C7.95199 15.6538 6.71741 14.9143 5.83018 13.8337C4.94295 12.753 4.458 11.3981 4.45801 9.99988C4.45801 9.83412 4.39216 9.67515 4.27495 9.55794C4.15774 9.44073 3.99877 9.37488 3.83301 9.37488C3.66725 9.37488 3.50828 9.44073 3.39107 9.55794C3.27386 9.67515 3.20801 9.83412 3.20801 9.99988C3.20794 11.6874 3.7932 13.3227 4.86399 14.627C5.93478 15.9313 7.42482 16.8238 9.08005 17.1523C10.7353 17.4809 12.4532 17.2251 13.941 16.4287C15.4288 15.6322 16.5942 14.3444 17.2387 12.7848C17.8831 11.2252 17.9667 9.49032 17.4751 7.87599C16.9835 6.26166 15.9472 4.86782 14.5428 3.9321C13.1385 2.99639 11.453 2.57675 9.77389 2.74472C8.09475 2.91269 6.52585 3.65787 5.33467 4.85322C5.31406 4.87439 5.29459 4.89664 5.27634 4.91988L4.22884 3.87155C4.17282 3.8154 4.10194 3.77641 4.02453 3.75916C3.94711 3.7419 3.86638 3.7471 3.79182 3.77414C3.71726 3.80118 3.65196 3.84895 3.60361 3.91181C3.55525 3.97468 3.52584 4.05005 3.51884 4.12905L3.22467 7.36988C3.21918 7.43068 3.22711 7.49195 3.2479 7.54935C3.2687 7.60674 3.30185 7.65887 3.34502 7.70204C3.38819 7.7452 3.44031 7.77836 3.49771 7.79916C3.55511 7.81995 3.61637 7.82788 3.67717 7.82238L6.91884 7.52738C6.99754 7.51997 7.0725 7.49032 7.13498 7.44191C7.19746 7.39349 7.24488 7.3283 7.2717 7.25395C7.29852 7.17959 7.30364 7.09915 7.28646 7.02199C7.26928 6.94484 7.23051 6.87416 7.17467 6.81822L6.15134 5.79488C6.17548 5.77617 6.19857 5.75614 6.22051 5.73488Z" fill="#70707B"/>
<path d="M11.125 5.8335C11.125 5.66774 11.0592 5.50876 10.9419 5.39155C10.8247 5.27434 10.6658 5.2085 10.5 5.2085C10.3342 5.2085 10.1753 5.27434 10.0581 5.39155C9.94085 5.50876 9.875 5.66774 9.875 5.8335V10.0002C9.87496 10.1061 9.90185 10.2104 9.95317 10.3031C10.0045 10.3958 10.0785 10.4739 10.1683 10.5302L12.6683 12.0927C12.8089 12.1806 12.9786 12.2091 13.1402 12.172C13.2203 12.1535 13.2959 12.1195 13.3627 12.0719C13.4296 12.0243 13.4864 11.9639 13.53 11.8943C13.5736 11.8247 13.603 11.7472 13.6166 11.6663C13.6302 11.5853 13.6277 11.5024 13.6093 11.4224C13.5909 11.3424 13.5569 11.2668 13.5092 11.1999C13.4616 11.1331 13.4013 11.0762 13.3317 11.0327L11.125 9.6535V5.8335Z" fill="#70707B"/>
</svg>
