<svg width="21" height="20" viewBox="0 0 21 20" fill="none" xmlns="http://www.w3.org/2000/svg">
<path d="M4.40533 3.36084L3.29521 2.24984C3.29519 2.24983 3.29518 2.24981 3.29517 2.2498C3.29515 2.24979 3.29514 2.24977 3.29513 2.24976C3.20967 2.16414 3.10156 2.10468 2.98348 2.07836C2.86537 2.05203 2.7422 2.05997 2.62844 2.10122C2.51468 2.14248 2.41506 2.21535 2.34128 2.31127C2.26754 2.40715 2.22268 2.52207 2.21197 2.64254L2.21198 2.6424L2.36137 2.65596L2.21195 2.64271L4.40533 3.36084ZM4.40533 3.36084C5.81425 1.96234 7.66177 1.09066 9.63803 0.892969C11.63 0.693711 13.6294 1.19153 15.2953 2.30155C16.9613 3.41157 18.1906 5.06506 18.7738 6.98011C19.357 8.89517 19.2579 10.9532 18.4934 12.8034C17.7289 14.6535 16.3463 16.1812 14.5814 17.126C12.8165 18.0708 10.7785 18.3742 8.81494 17.9845C6.85136 17.5947 5.08375 16.536 3.81349 14.9887C2.54322 13.4415 1.84894 11.5015 1.84902 9.49966C1.84902 9.26665 1.94159 9.04318 2.10635 8.87842C2.27111 8.71365 2.49458 8.62109 2.72759 8.62109C2.96061 8.62109 3.18407 8.71365 3.34884 8.87842C3.5136 9.04318 3.60616 9.26665 3.60616 9.49966C3.60616 11.0948 4.15943 12.6407 5.17165 13.8735C6.18388 15.1064 7.59239 15.9501 9.15705 16.2606C10.7217 16.5712 12.3457 16.3295 13.752 15.5766C15.1584 14.8238 16.2601 13.6065 16.8693 12.1322C17.4786 10.658 17.5576 9.01802 17.093 7.492C16.6283 5.96598 15.6488 4.64835 14.3214 3.76376C12.9939 2.87916 11.4007 2.48237 9.81347 2.64102C8.24055 2.79824 6.76992 3.49126 5.64762 4.60323M5.64762 4.60323L6.72908 5.68469L6.72919 5.68479C6.81438 5.77015 6.87353 5.87798 6.89974 5.99569C6.92595 6.11341 6.91814 6.23615 6.87722 6.34959L6.73612 6.29869L5.64762 4.60323Z" fill="#5842C4" stroke="#604BCA" stroke-width="0.3"/>
<path d="M12.7138 13.0113C12.888 13.1204 13.0985 13.1558 13.2989 13.1096C13.3981 13.0868 13.4918 13.0446 13.5748 12.9856C13.6577 12.9265 13.7282 12.8517 13.7822 12.7654C13.8362 12.6791 13.8726 12.583 13.8895 12.4826C13.9064 12.3822 13.9033 12.2795 13.8805 12.1803C13.8576 12.0811 13.8155 11.9873 13.7564 11.9044C13.6974 11.8215 13.6225 11.751 13.5362 11.697L13.5362 11.697L11.4 10.3619V6.625C11.4 6.41946 11.3183 6.22233 11.173 6.07699C11.0277 5.93165 10.8305 5.85 10.625 5.85C10.4195 5.85 10.2223 5.93165 10.077 6.07699C9.93165 6.22233 9.85 6.41946 9.85 6.625L9.85 10.7916C9.85 10.7916 9.85 10.7917 9.85 10.7917C9.84995 10.923 9.8833 11.0523 9.94693 11.1672C10.0106 11.2822 10.1024 11.3791 10.2137 11.4488L10.2138 11.4489L12.7138 13.0113ZM12.7138 13.0113L12.7933 12.8842L12.7138 13.0114L12.7138 13.0113Z" fill="#5842C4" stroke="#604BCA" stroke-width="0.3"/>
</svg>
