<svg width="24" height="21" viewBox="0 0 24 21" fill="none" xmlns="http://www.w3.org/2000/svg">
<path d="M17 19.5L12 15.5L7 19.5M6.8 15.5H17.2C18.8802 15.5 19.7202 15.5 20.362 15.173C20.9265 14.8854 21.3854 14.4265 21.673 13.862C22 13.2202 22 12.3802 22 10.7V6.3C22 4.61984 22 3.77976 21.673 3.13803C21.3854 2.57354 20.9265 2.1146 20.362 1.82698C19.7202 1.5 18.8802 1.5 17.2 1.5H6.8C5.11984 1.5 4.27976 1.5 3.63803 1.82698C3.07354 2.1146 2.6146 2.57354 2.32698 3.13803C2 3.77976 2 4.61984 2 6.3V10.7C2 12.3802 2 13.2202 2.32698 13.862C2.6146 14.4265 3.07354 14.8854 3.63803 15.173C4.27976 15.5 5.11984 15.5 6.8 15.5Z" stroke="#604BCA" stroke-width="2.5" stroke-linecap="round" stroke-linejoin="round"/>
</svg>
