<svg width="54" height="52" viewBox="0 0 54 52" fill="none" xmlns="http://www.w3.org/2000/svg">
<path d="M0.788269 51H5.59596M20.019 51H16.1729M16.1729 51L18.096 38.1714M16.1729 51H5.59596M18.096 38.1714C25.2647 44.3927 40.3148 46.0993 48.2123 37.3453C48.5964 36.9195 48.5584 36.2702 48.153 35.8647L16.863 4.57476C16.467 4.17876 15.837 4.13154 15.4077 4.49111C7.40399 11.1941 7.59275 22.928 12.8045 31.7692M18.096 38.1714C16.0043 36.3562 14.2193 34.1693 12.8045 31.7692M5.59596 51L12.8045 31.7692" stroke="#181D3D" stroke-width="1.44304" stroke-linecap="round"/>
<circle cx="37.3269" cy="15.423" r="1.20155" fill="#181D3D" stroke="#181D3D" stroke-width="1.44304"/>
<path d="M35.4038 8.69228C38.6089 8.69228 44.0577 9.65381 45.0192 17.3461" stroke="#181D3D" stroke-width="1.44304" stroke-linecap="round"/>
<path d="M33.4807 1C39.891 1 50.7884 2.92308 52.7115 18.3077" stroke="#181D3D" stroke-width="1.44304" stroke-linecap="round"/>
</svg>
