<svg width="20" height="21" viewBox="0 0 20 21" fill="none" xmlns="http://www.w3.org/2000/svg">
<path d="M6.98438 10.5606L8.99271 12.5773L13.0177 8.54395" stroke="#70707B" stroke-linecap="round" stroke-linejoin="round"/>
<path d="M8.95937 2.60215C9.53437 2.11048 10.476 2.11048 11.0594 2.60215L12.376 3.73548C12.626 3.95215 13.0927 4.12715 13.426 4.12715H14.8427C15.726 4.12715 16.451 4.85215 16.451 5.73548V7.15215C16.451 7.47715 16.626 7.95215 16.8427 8.20215L17.976 9.51882C18.4677 10.0938 18.4677 11.0355 17.976 11.6188L16.8427 12.9355C16.626 13.1855 16.451 13.6521 16.451 13.9855V15.4021C16.451 16.2855 15.726 17.0105 14.8427 17.0105H13.426C13.101 17.0105 12.626 17.1855 12.376 17.4021L11.0594 18.5355C10.4844 19.0271 9.54271 19.0271 8.95937 18.5355L7.64271 17.4021C7.39271 17.1855 6.92604 17.0105 6.59271 17.0105H5.15104C4.26771 17.0105 3.54271 16.2855 3.54271 15.4021V13.9771C3.54271 13.6521 3.36771 13.1855 3.15937 12.9355L2.03437 11.6105C1.55104 11.0355 1.55104 10.1021 2.03437 9.52715L3.15937 8.20215C3.36771 7.95215 3.54271 7.48548 3.54271 7.16048V5.72715C3.54271 4.84381 4.26771 4.11882 5.15104 4.11882H6.59271C6.91771 4.11882 7.39271 3.94382 7.64271 3.72715L8.95937 2.60215Z" stroke="#70707B" stroke-linecap="round" stroke-linejoin="round"/>
</svg>
