<svg width="490" height="298" viewBox="0 0 490 298" fill="none" xmlns="http://www.w3.org/2000/svg">
<g clip-path="url(#clip0_2647_1716)">
<rect width="490" height="298" fill="#5842C4"/>
<path d="M-136.191 236.57C-141.011 226.419 -146.983 216.66 -155.413 209.18C-162.053 203.299 -169.614 202.506 -178.079 203.112C-182.818 203.457 -187.52 203.79 -192.259 204.135C-193.476 204.236 -198.591 204.792 -198.716 202.633C-198.789 201.37 -196.48 200.231 -195.286 199.764C-187.757 196.777 -180.419 194.424 -173.286 192.73C-171.129 192.215 -168.69 191.888 -165.981 191.773C-155.742 191.342 -149.59 197.115 -144.72 205.43C-139.211 214.804 -133.653 224.205 -128.093 233.543C-122.07 243.619 -115.928 253.246 -106.495 260.314C-94.5251 269.264 -78.1178 271.495 -63.654 269.438C-56.1301 268.377 -49.7835 266.764 -41.6416 264.822C-35.9881 263.47 -31.5296 263.806 -26.0263 265.748C-16.1913 269.243 -5.22211 272.205 5.63247 272.467C11.4642 272.596 17.0935 271.52 22.5479 269.189C28.5172 266.628 33.5538 263.713 37.6686 260.483C44.8934 254.787 47.3139 247.052 47.8241 238.168C48.3559 229.07 48.2839 221.118 50.3118 213.103C50.6303 211.831 52.5016 206.656 54.6951 208.284C55.774 209.072 55.7998 211.177 55.7225 212.42C55.4924 217.021 55.1992 221.62 55.1829 226.242C55.1598 231.632 55.112 237.009 55.0505 242.411C54.9822 248.58 54.555 254.873 52.2349 260.508C50.6027 264.497 48.6987 265.312 44.5976 267.006C41.2553 268.379 38.1495 270.139 35.2171 272.285C33.0267 273.907 29.8489 276.786 27.5325 278.403C19.4111 284.087 9.93394 285.935 0.100432 284.821C-5.48268 284.186 -10.8787 282.4 -16.7682 280.631C-25.6285 277.996 -36.5025 276.083 -45.8052 277.385C-56.0728 278.797 -65.9426 280.365 -76.3547 279.189C-85.3463 278.186 -94.2092 275.613 -102.982 271.482C-114.405 266.083 -123.74 260.291 -129.75 249.321C-131.813 245.482 -133.973 241.235 -136.191 236.57Z" fill="white" fill-opacity="0.04"/>
<path d="M403.242 266.599C402.189 265.182 400.847 264.055 399.203 263.181C395.012 260.966 390.767 258.85 386.481 256.808C377.933 252.737 367.932 251.402 360.136 257.779C354.433 262.417 351.913 268.296 351.148 275.432C350.531 281.427 349.583 286.276 345.44 290.777C343.084 293.337 340.424 295.632 337.598 297.644C334.915 299.573 332.072 301.382 329.141 302.886C323.176 305.963 316.712 307.962 310.435 310.322C306.238 311.898 302.281 314.669 299.043 317.772C294.845 321.792 291.471 326.943 288.086 332.055C284.715 337.142 280.388 341.22 275.102 344.352C268.691 348.116 261.542 351.699 255.242 354.624C248.76 357.643 241.927 358.505 234.714 357.261C229.685 356.384 223.704 355.594 216.708 354.888C210.355 354.246 204.058 353.153 199.178 348.693C193.178 343.229 189.394 335.224 186.348 327.69C183.106 319.695 180.24 311.489 175.358 304.358C170.368 297.071 162.609 295.011 154.208 294.687C150.424 294.53 146.629 294.334 142.862 294.09C139.07 293.831 135.266 293.535 131.466 293.175C127.855 292.824 124.235 292.371 120.596 292.069C117.084 291.772 113.552 291.625 110.041 291.908C107.201 292.142 104.375 292.642 101.671 293.563C99.2101 294.393 96.8737 295.581 94.7406 297.041C92.3474 298.68 90.2427 300.671 88.344 302.873C87.6929 303.639 87.0528 304.444 86.4375 305.262C78.8616 315.428 74.0048 326.74 71.9081 339.123C71.1429 343.526 70.3888 349.478 69.8465 354.292C68.7945 363.747 67.1224 372.923 64.8164 381.847C62.7638 389.849 60.3911 398.253 58.7063 406.522C57.0762 414.692 57.813 424.876 52.7071 431.869C51.1264 434.021 48.3548 437.155 49.9503 440.094C52.2804 444.499 59.6387 441.353 62.1791 439.216C64.9028 436.923 65.9528 433.868 66.1357 430.399C67.0053 415.634 68.8903 401.365 72.8863 387.069C76.4056 374.506 78.3053 362.303 79.6663 349.385C81.4367 332.415 86.0706 311.621 104.035 304.708C107.323 303.434 110.671 302.225 114.149 301.538C117.563 300.849 121.042 300.741 124.541 300.773C127.864 300.773 131.203 300.975 134.513 301.288C137.847 301.616 141.163 302.094 144.462 302.659C147.898 303.268 151.305 303.989 154.67 304.784C155.12 304.903 155.584 304.998 156.033 305.117C166.453 307.616 169.974 315.572 173.591 324.578C176.336 331.431 178.847 336.965 182.732 343.16C189.766 354.437 200.448 362.451 212.704 367.57C216.318 369.081 220.12 370.31 223.896 370.655C229.648 371.159 235.944 369.871 241.191 368.552C249.297 366.558 257.293 364.182 265.179 361.424C270.691 359.511 275.417 357.39 279.366 355.097C285.232 351.675 288.75 347.312 292.334 341.666C296.864 334.548 303.738 329.077 310.168 323.361C312.347 321.411 314.047 320.033 315.271 319.164C318.603 316.821 322.236 315.158 326.173 314.049C329.305 313.171 332.479 312.51 335.531 311.427C341.97 309.125 348.002 305.055 352.415 299.834C356.322 295.235 358.919 289.624 359.837 283.666C361.019 275.955 361.453 266.16 370.888 263.806C379.225 261.747 387.513 266.575 394.517 270.406C396.443 271.468 399.011 272.595 401.21 272.296C404.074 271.785 404.869 268.783 403.242 266.599Z" fill="white" fill-opacity="0.04"/>
<path d="M400.466 121.079C407.795 115.312 415.998 112.214 425.144 110.73C437.165 108.773 449.253 107.335 461.369 106.427C466.63 106.016 472.17 104.054 476.353 100.701C480.525 97.3093 484.434 93.869 486.224 89.4211C487.054 87.4023 487.778 84.5855 488.463 82.7119C493 70.5807 502.855 60.9001 513.186 53.4436C515.883 51.4898 518.191 50.0615 520.125 49.1341C521.273 48.5771 526.278 46.4168 526.126 48.8417C526.078 49.394 525.257 50.292 524.707 50.7604C521.958 53.0396 519.032 55.3492 516.607 57.7427C506.487 67.7272 497.143 79.6839 493.05 93.5718C490.489 102.258 486.552 119.062 473.669 115.655C469.807 114.651 465.66 114.101 461.202 114.054C448.865 113.907 436.409 113.566 424.202 115.742C420.65 116.388 417.271 117.419 413.989 118.857C410.565 120.378 406.685 122.837 403.122 124.956C402.021 125.603 397.021 127.638 398.031 124.014C398.35 123.032 399.486 121.857 400.466 121.079Z" fill="white" fill-opacity="0.04"/>
<path d="M324.162 104.531C319.343 94.3798 313.37 84.6211 304.94 77.1412C298.3 71.2598 290.74 70.4671 282.275 71.0729C277.535 71.4176 272.834 71.7514 268.094 72.0962C266.877 72.1968 261.762 72.7527 261.638 70.5935C261.564 69.3308 263.873 68.1922 265.068 67.7254C272.596 64.7378 279.934 62.3847 287.068 60.6907C289.224 60.1756 291.664 59.8487 294.372 59.7344C304.612 59.3032 310.763 65.0761 315.634 73.3907C321.142 82.7647 326.7 92.166 332.261 101.504C338.283 111.58 344.426 121.207 353.859 128.275C365.828 137.225 382.236 139.456 396.7 137.399C404.223 136.338 410.57 134.725 418.712 132.783C424.365 131.431 428.824 131.767 434.327 133.709C444.162 137.204 455.131 140.166 465.986 140.428C471.818 140.557 477.447 139.481 482.901 137.15C488.871 134.589 493.907 131.674 498.022 128.444C505.247 122.748 507.667 115.013 508.178 106.129C508.709 97.0306 508.637 89.0791 510.665 81.0636C510.984 79.792 512.855 74.6169 515.049 76.2448C516.128 77.0328 516.153 79.1375 516.076 80.3814C515.846 84.9823 515.553 89.5805 515.536 94.2028C515.513 99.5933 515.466 104.97 515.404 110.372C515.336 116.541 514.909 122.834 512.588 128.469C510.956 132.458 509.052 133.273 504.951 134.967C501.609 136.34 498.503 138.1 495.571 140.246C493.38 141.868 490.203 144.747 487.886 146.364C479.765 152.048 470.287 153.896 460.454 152.782C454.871 152.147 449.475 150.361 443.585 148.592C434.725 145.957 423.851 144.044 414.548 145.345C404.281 146.758 394.411 148.326 383.999 147.15C375.007 146.147 366.144 143.574 357.372 139.443C345.949 134.044 336.614 128.252 330.603 117.282C328.54 113.443 326.38 109.196 324.162 104.531Z" fill="white" fill-opacity="0.04"/>
<path d="M290.096 161.453C285.308 156.593 280.653 153.704 274.231 151.384C268.045 149.162 261.252 146.638 255.89 142.812C247.29 136.686 250.162 127.206 251.981 118.754C253.074 113.761 253.531 108.577 253.351 103.203C253.101 95.2822 258.223 88.2015 266.339 87.1781C273.693 86.2491 281.062 86.1648 288.433 86.9496C291.842 87.3179 295.142 88.173 298.294 89.5258C302.638 91.4068 305.023 94.4913 307.059 98.6698C310.618 106.036 313.995 113.495 317.192 121.047C317.445 121.637 317.375 122.402 316.721 122.652C315.512 123.144 312.809 121.331 311.809 120.458C306.872 116.159 304.761 110.138 300.352 104.072C291.31 91.5913 270.786 87.4763 262.858 103.976C259.039 111.905 258.215 119.844 260.332 127.83C262.22 134.95 265.144 139.972 271.867 143.551C275.525 145.505 279.459 146.903 283.311 148.448C290.442 151.352 296.216 155.887 300.683 162.081C301.757 163.575 302.934 165.639 302.924 167.402C302.914 169.455 301.334 170.385 299.488 169.817C295.694 168.689 292.774 164.184 290.096 161.453Z" fill="white" fill-opacity="0.04"/>
<path d="M270.123 217.396C266.709 211.107 262.184 205.716 255.24 202.883C253.102 202.026 250.99 201.183 248.877 200.339C243.297 198.13 242.893 191.764 250.033 192.325C257.173 192.886 264.105 196.034 268.384 201.867C274.315 209.898 278.025 220.886 286.321 226.748C292.591 231.203 300.595 230.439 308.038 228.305C311.03 227.447 315.995 225.94 322.881 223.82C333.044 220.677 344.373 219.56 355.186 218.095C365.147 216.77 373.723 214.103 382.135 208.419C384.345 206.936 386.555 205.453 388.751 203.995C397.691 198.056 408.249 196.063 418.788 197.823C419.816 198.005 422.098 198.427 425.609 199.077C430.372 199.967 435.348 198.499 439.948 199.685C444.436 200.841 446.928 203.792 446.906 208.54C446.893 216.122 449.498 222.415 452.164 229.354C453.167 231.965 454.84 236.683 452.492 239.054C450.606 240.941 448.38 239.488 446.981 237.591C444.626 234.394 443.62 230.334 441.939 225.515C440.112 220.262 437.214 215.544 432.799 212.048C423.151 204.378 411.886 203.054 400.527 207.596C394.667 209.96 390.026 213.093 385.012 216.374C377.27 221.431 369.095 224.48 360.499 225.496C354.735 226.176 348.956 226.881 343.165 227.61C334.021 228.742 325.183 231.007 316.652 234.407C310.986 236.653 303.941 240.165 299.629 242.064C288.535 246.944 281.705 242.566 277.13 232.035C274.806 226.572 272.469 221.713 270.123 217.396Z" fill="white" fill-opacity="0.04"/>
<path d="M327.863 168.677C327.752 169.227 327.218 169.608 326.666 169.497L323.331 168.879C322.78 168.768 322.423 168.25 322.509 167.686L322.526 167.599C322.637 167.049 323.171 166.668 323.722 166.779L327.057 167.397C327.609 167.508 327.966 168.026 327.879 168.59L327.863 168.677Z" fill="white" fill-opacity="0.04"/>
<path d="M371.136 191.901C370.422 191.443 369.728 191.124 369.056 190.882C364.061 189.188 360.659 188.052 356.669 185.883C349.849 182.186 344.757 177.062 336.522 180.625C331.851 182.648 328.563 183.922 324.299 184.69C310.502 187.115 296.942 185.682 283.645 181.275C269.24 176.482 254.314 170.244 239.552 164.932C228.921 161.128 215.782 158.705 210.226 171.915C207.715 177.895 206.853 186.135 207.039 192.252C207.332 202.19 214.197 208.711 222.146 213.513C234.285 220.82 247.708 226.743 255.458 239.637C258.859 245.308 261.546 251.453 263.225 257.847C264.227 261.68 265.057 265.708 264.499 269.678C263.914 273.697 261.702 276.754 259.04 279.692C253.811 285.395 246.839 290.17 239.089 291.523C238.338 291.656 237.576 291.75 236.827 291.82C234.407 291.996 231.997 292.211 229.563 292.412C226.076 292.708 221.649 294.351 223.351 298.956C224.974 303.357 232.812 304.753 236.875 304.292C246.115 303.278 253.921 296.359 260.788 289.855C266.998 283.953 274.214 277.576 275.022 268.502C275.767 260.358 272.48 251.341 269.094 244.07C266.727 239.034 263.884 234.217 260.597 229.735C252.612 218.835 240.488 213.884 228.913 207.886C218.699 202.574 208.294 191.851 215.735 179.777C221.374 170.602 231.493 173.352 239.808 176.041C256.449 181.456 272.859 186.937 289.955 190.834C305.712 194.411 320.973 195.335 337.211 194.963C339.07 194.927 343.295 194.813 349.872 194.645C355.374 194.496 360.576 195.468 365.556 197.539C366.923 198.1 368.318 198.258 369.782 198.004C372.89 197.403 374.177 193.803 371.136 191.901Z" fill="white" fill-opacity="0.04"/>
<path d="M290.865 212.917C289.593 211.315 289.88 209.576 291.611 208.375C294.33 206.498 297.929 205.942 301.194 205.813C308.217 205.538 315.225 205.64 322.225 206.221C323.712 206.333 326.723 207.125 325.378 209.085C324.328 210.629 322.092 211.229 320.511 211.579C314.758 212.876 308.984 214.098 303.199 215.281C299.759 215.957 293.097 215.756 290.865 212.917Z" fill="white" fill-opacity="0.04"/>
<path d="M567.202 -28.9125C566.149 -30.3293 564.807 -31.4558 563.163 -32.3302C558.972 -34.545 554.727 -36.6612 550.441 -38.7036C541.893 -42.7747 531.892 -44.1096 524.096 -37.732C518.393 -33.094 515.873 -27.2152 515.108 -20.0794C514.491 -14.0838 513.543 -9.23565 509.4 -4.73434C507.044 -2.17428 504.384 0.121175 501.558 2.13265C498.875 4.06186 496.032 5.87107 493.101 7.3743C487.136 10.452 480.672 12.451 474.395 14.8104C470.198 16.387 466.241 19.1576 463.003 22.2605C458.805 26.2808 455.431 31.4313 452.046 36.5436C448.675 41.6312 444.348 45.7091 439.062 48.8403C432.651 52.605 425.502 56.1878 419.202 59.1131C412.72 62.1316 405.887 62.994 398.674 61.7497C393.645 60.8731 387.664 60.0831 380.668 59.3768C374.315 58.735 368.018 57.6421 363.138 53.1817C357.138 47.7174 353.353 39.7124 350.308 32.179C347.066 24.184 344.2 15.9778 339.318 8.84681C334.328 1.5602 326.569 -0.500478 318.168 -0.824243C314.384 -0.981411 310.589 -1.17681 306.822 -1.42148C303.03 -1.67977 299.226 -1.97632 295.426 -2.33573C291.815 -2.68729 288.195 -3.13998 284.556 -3.44228C281.044 -3.73935 277.512 -3.88603 274 -3.6036C271.161 -3.36886 268.335 -2.869 265.631 -1.9484C263.17 -1.11845 260.834 0.069372 258.701 1.53017C256.307 3.16911 254.203 5.16015 252.304 7.36129C251.653 8.12784 251.013 8.93263 250.397 9.75105C242.822 19.9169 237.965 31.2285 235.868 43.6122C235.103 48.0145 234.349 53.9666 233.806 58.7812C232.754 68.2355 231.082 77.412 228.776 86.3355C226.724 94.3373 224.351 102.742 222.666 111.011C221.036 119.181 221.773 129.365 216.667 136.358C215.086 138.509 212.315 141.644 213.91 144.583C216.24 148.987 223.599 145.842 226.139 143.705C228.863 141.412 229.913 138.357 230.096 134.888C230.965 120.123 232.85 105.853 236.846 91.5582C240.366 78.9943 242.265 66.7914 243.626 53.8733C245.397 36.9034 250.031 16.1098 267.995 9.19714C271.283 7.92287 274.631 6.71409 278.109 6.02717C281.523 5.33763 285.002 5.23022 288.501 5.26216C291.823 5.26162 295.163 5.46334 298.473 5.77717C301.807 6.10463 305.123 6.58244 308.422 7.14777C311.858 7.75659 315.265 8.47755 318.63 9.27237C319.08 9.39183 319.544 9.48666 319.993 9.60612C330.413 12.1048 333.934 20.061 337.551 29.0667C340.296 35.9201 342.807 41.4535 346.692 47.6488C353.726 58.9253 364.408 66.9396 376.664 72.0591C380.277 73.5697 384.08 74.7983 387.855 75.1441C393.608 75.6476 399.904 74.3597 405.151 73.0409C413.257 71.0472 421.253 68.671 429.139 65.9124C434.651 63.9999 439.377 61.8784 443.326 59.5861C449.192 56.1641 452.71 51.8006 456.294 46.155C460.824 39.037 467.698 33.5659 474.128 27.8495C476.307 25.8993 478.007 24.5213 479.231 23.6526C482.563 21.3094 486.195 19.6464 490.133 18.5377C493.265 17.6601 496.439 16.9983 499.491 15.9158C505.93 13.6135 511.962 9.54341 516.375 4.3227C520.282 -0.276589 522.879 -5.88764 523.797 -11.8455C524.979 -19.556 525.413 -29.3508 534.848 -31.705C543.185 -33.7647 551.473 -28.936 558.477 -25.1054C560.403 -24.0428 562.971 -22.9158 565.17 -23.215C568.034 -23.7259 568.829 -26.7287 567.202 -28.9125Z" fill="white" fill-opacity="0.04"/>
<path d="M548.858 427.347C548.999 426.396 549.024 425.477 548.987 424.556C548.903 422.323 548.313 420.132 547.517 418.02C546.47 415.256 544.897 412.684 542.995 410.413C541.069 408.129 538.826 406.184 536.476 404.373C533.978 402.48 531.384 400.76 528.762 399.089C528.504 398.915 528.257 398.779 527.999 398.604C520.371 393.69 513.129 388.312 506.251 382.396C498.738 375.937 492.415 369.426 491.409 359.03C490.743 351.973 492.094 345.353 493.216 338.446C493.824 334.793 494.182 331.067 494.4 327.36C494.632 323.628 494.724 319.916 494.651 316.209C494.573 312.629 494.432 309.045 494.228 305.459C494.011 301.898 493.705 298.321 493.323 294.765C491.613 278.545 488.923 261.302 481.277 246.536C479.032 242.21 477.394 238.766 476.351 236.228C473.644 229.654 472.285 222.568 472.249 214.958C472.237 211.318 472.211 207.701 472.223 204.074C472.24 193.405 467.363 186.148 458.064 180.698C452.465 177.417 446.533 174.853 440.293 173.019C434.165 171.215 428.247 170.718 422.579 171.515C419.046 172.011 413.943 173.184 410.363 173.59C396.179 175.319 382.632 172.35 370.375 164.85C364.202 161.091 358.015 157.358 351.815 153.649C342.349 147.977 331.6 142.467 320.515 140.47C315.411 139.552 310.151 139.964 305.308 137.936C299.634 135.546 294.541 129.842 291.422 124.649C288.529 119.805 286.243 114.042 280.982 111.14C278.389 109.71 275.401 109.863 274.159 112.973C272.835 116.231 274.93 121.117 277.008 123.71C278.593 125.678 281.091 127.571 283.225 129.423C286.493 132.254 289.87 136.4 292.092 138.848C297.768 145.13 305.407 148.861 313.609 150.94C325.798 154.029 336.327 156.331 346.854 161.718C350.973 163.829 357.003 167.38 364.919 172.357C371.21 176.309 376.759 179.563 383.567 181.131C386.844 181.909 392.161 182.269 396.015 183.462C398.322 184.188 400.618 184.875 402.925 185.601C409.325 187.554 416.012 187.769 422.56 186.492C431.947 184.69 439.87 183.142 448.429 187.831C455.532 191.716 459.977 198.413 460.968 206.453C461.193 208.314 461.426 211.209 461.655 215.098C462.134 223.306 464.26 231.683 466.916 240.384C469.216 247.924 471.579 255.467 474.033 262.963C477 272.093 478.869 277.852 479.603 280.251C480.568 283.452 481.443 286.701 482.178 289.969C482.947 293.351 483.613 296.743 484.141 300.153C484.679 303.602 485.088 307.108 485.385 310.584C485.682 314.061 485.814 317.543 485.807 321.045C485.802 324.483 485.647 327.903 485.302 331.315C484.933 335.003 484.424 338.711 483.828 342.402C481.42 357.091 478.181 371.417 489.942 383.243C494.307 387.644 499.098 391.509 504.316 394.837C512.523 400.103 521.375 404.149 529.475 409.549C532.376 411.471 535.024 414.025 536.896 416.987C537.276 417.582 537.628 418.227 537.917 418.869C538.319 419.83 538.631 420.838 538.841 421.855C539.455 424.992 538.992 428.21 537.41 431.004C535.964 433.551 533.706 435.586 531.03 436.747C529.975 437.195 528.849 437.538 527.692 437.704C523.534 438.338 518.703 436.928 514.788 435.09C508.556 432.135 502.773 428.431 497.462 423.991C493.959 421.061 490.43 418.118 486.913 415.213C483.97 412.786 480.892 410.542 477.706 408.495C474.544 406.461 471.272 404.625 467.908 402.898C464.53 401.196 461.056 399.666 457.528 398.234C453.975 396.789 450.34 395.492 446.77 394.134C446.12 393.969 445.464 393.639 444.855 393.4C444.246 393.16 443.623 392.945 443.014 392.706C441.61 392.156 440.191 391.631 438.787 391.082C434.671 389.487 429.605 386.758 427.679 382.962C425.588 378.882 427.321 374.305 430.375 371.069C433.166 368.073 435.992 366.352 439.714 364.352C446.023 361.528 452.378 358.794 458.767 356.175C459.86 355.716 461.679 354.822 464.199 353.478C477.973 346.152 474.741 329.768 470.703 317.86C468.994 312.801 467.31 307.755 465.601 302.696C464.052 298.046 463.091 294.429 462.694 291.83C461.992 287.165 461.377 283.739 460.852 281.487C459.191 274.364 456.123 267.976 451.583 262.32C448.305 258.229 442.841 253.832 440.072 250.568C437.868 247.97 436.011 245.852 434.462 244.226C426.817 236.086 416.867 230.823 405.472 230.778C399.46 230.742 393.551 231.857 387.567 232.352C384.244 232.642 381.906 232.671 380.535 232.526C374.716 231.793 369.057 231.759 363.608 232.452C354.387 233.606 345.143 235.615 335.928 238.445C329.823 240.32 324.267 242.369 318.649 245.285C313.508 247.981 309.68 251.916 307.2 257.142C302.909 266.096 300.278 275.838 294.81 284.239C289.599 292.236 282.466 298.754 274.828 304.383C274.762 304.443 274.671 304.49 274.592 304.574C272.662 306.019 270.671 307.397 268.645 308.724C258.124 315.593 245.895 317.692 233.644 314.248C224.016 311.543 213.336 307.421 204.791 301.776C199.048 297.998 193.241 293.348 187.356 287.85C180.875 281.799 176.246 277.059 170.085 273.339C169.357 272.906 168.592 272.484 167.837 272.1C167.082 271.716 166.314 271.356 165.543 271.06C151.548 265.238 134.596 271.487 121.515 263.436C112.856 258.114 109.124 247.629 106.028 237.978C103.646 230.585 101.249 222.927 102.127 215.242C103.031 207.507 107.257 200.415 112.732 194.848C118.208 189.281 124.929 185.075 131.699 181.187C138.455 177.323 145.951 172.999 148.233 165.574C149.811 160.462 148.465 154.863 146.321 149.95C144.176 145.036 141.273 140.444 139.501 135.382C137.819 130.563 137.19 125.36 137.705 120.305C138.066 116.805 138.337 112.13 134.99 110.895C132.713 110.058 130.193 111.691 128.87 113.727C125.778 118.486 126.952 124.859 129.262 130.056C131.838 135.819 135.576 141.001 138.115 146.775C140.639 152.573 141.806 159.424 138.992 165.076C137.143 168.816 133.768 171.586 130.381 174.028C123.528 178.996 116.149 183.224 109.585 188.544C103.02 193.865 97.1703 200.512 94.6599 208.583C91.1275 219.95 96.3606 230.169 99.4234 240.928C102.74 252.567 103.335 264.634 114.679 271.63C120.898 275.478 128.273 277.07 135.524 278.013C143.729 279.097 151.95 279.804 160.09 281.528C160.178 281.544 160.29 281.574 160.378 281.59C160.466 281.606 160.592 281.612 160.666 281.653C168.894 283.393 174.393 287.551 180.32 293.264C186.757 299.452 193.022 305.545 200.603 310.369C209.908 316.273 219.88 321.033 230.346 324.554C252.062 331.868 273.678 321.92 289.28 306.822C296.404 299.913 303.193 292.851 308.192 284.19C311.584 278.31 313.828 271.765 316.751 265.626C320.378 258.042 325.893 253.043 333.784 250.159C340.929 247.571 348.271 245.735 355.794 244.674C370.384 242.622 385.026 242.046 399.72 242.946C414.779 243.887 427.482 248.899 436.864 260.827C443.066 268.718 447.712 277.263 450.288 286.981C451.337 290.905 452.127 295.876 452.952 300.319C453.985 305.841 455.219 310.478 456.602 314.264C461.098 326.392 466.712 337.786 451.321 345.7C443.586 349.699 435.923 352.87 428.745 358.367C422.612 363.025 418.233 368.94 415.551 375.983C413.221 382.159 412.045 390.966 416.587 396.559C419.686 400.391 426.511 402.451 431.52 403.83C435.217 404.84 438.888 405.9 442.599 406.885C446.222 407.855 449.889 408.687 453.543 409.544C457.182 410.426 460.809 411.333 464.361 412.488C465.694 412.934 467.028 413.38 468.32 413.899C469.563 414.392 470.858 414.849 472.018 415.489C474.694 416.772 477.491 418.765 480.375 421.416C486.142 426.72 491.534 432.234 498.258 436.394C504.107 440.038 510.558 443.178 517.235 444.866C527.062 447.327 536.864 442.86 543.95 436.251C546.514 433.838 548.321 430.814 548.858 427.347Z" fill="white" fill-opacity="0.04"/>
<path d="M381.877 450.391C383.741 443.893 381.364 438.176 380.862 431.756C379.832 418.903 377.438 406.358 375.367 393.637C373.507 382.223 372.517 371.449 379.767 361.522C385.447 353.784 393.395 348.005 400.122 341.23C404.093 337.213 407.575 332.797 410.258 327.845C414.215 320.54 414.204 313.233 410.24 305.901C405.841 297.782 397.823 287.699 388.735 284.777C384.222 283.317 380.397 284.456 377.221 288.204C373.314 292.803 370.937 298.889 367.236 303.699C362.748 309.521 356.681 314.119 350.838 318.486C349.247 319.667 347.618 320.859 346.017 322.002C345.209 322.586 344.365 323.118 343.558 323.701C342.958 324.143 342.137 325.041 341.433 325.263C335.404 329.56 329.295 335.164 323.726 340.841C317.801 346.868 311.901 352.908 306.012 358.987C297.244 368.045 288.229 375.166 275.103 375.452C272.852 375.497 270.587 375.567 268.337 375.612C261.911 375.799 256.022 377.632 250.644 381.163C245.266 384.693 240.41 389.026 235.463 393.116C228.294 399.004 220.251 404.023 210.577 401.518C202.09 399.313 195.008 394.636 189.383 387.448C186.816 384.168 184.406 380.78 182.203 377.249C177.004 368.946 171.829 360.657 166.668 352.343C163.541 347.338 160.815 342.135 158.464 336.722C157.046 333.464 156.619 330.687 156.396 327.252C156.139 323.411 154.801 320.358 151.77 317.914C143.703 311.407 135.729 315.081 129.597 321.83C123.876 328.13 119.247 333.682 111.259 336.802C109.935 337.326 107.814 337.893 104.893 338.566C102.61 339.075 100.338 339.623 98.0775 340.21C96.1099 340.733 94.0683 341.215 92.3046 342.3C90.7738 343.257 89.4469 344.777 89.1568 346.578C88.8746 348.192 90.1937 349.884 91.5821 350.521C93.2422 351.308 95.4047 350.957 97.1063 350.448C98.449 350.063 99.7365 349.487 100.988 348.859C104.793 347.001 108.584 345.168 112.436 343.401C117.139 341.203 122.208 338.113 127.632 334.093C128.779 333.247 130.423 332.32 132.559 331.376C138.715 328.596 144.337 331.021 148.174 336.257C152.153 341.7 155.371 346.948 157.765 351.935C164.73 366.358 171.635 382.227 182.922 393.919C186.058 397.161 190.151 399.611 193.4 402.883C195.801 405.3 198.302 408.641 200.364 410.39C206.295 415.398 214.163 413.948 220.864 411.115C231.359 406.676 240.517 399.763 249.893 393.388C259.997 386.514 270.75 381.96 283.258 383.777C287.942 384.463 293.242 386.422 298.106 385.213C304.848 383.528 307.696 377.637 310.041 371.726C314.105 361.553 320.348 353.032 328.761 346.126C332.476 343.094 337.907 340.107 341.244 337.638C346.668 333.618 351.422 328.714 356.988 324.902C359.915 322.882 363.054 321.236 365.85 319.047C368.606 316.869 370.97 314.12 372.802 311.11C375.418 306.86 377.652 302.368 380.718 298.527C382.237 296.663 384.575 294.833 386.937 294.528C392.247 293.854 398.103 302.776 400.128 306.917C403.573 313.963 403.039 321.902 399.48 328.783C397.693 332.236 395.376 335.075 392.694 337.873C386.036 344.814 378.297 350.741 373.039 358.937C370.256 363.256 368.324 368.076 367.519 373.131C366.716 378.124 366.973 383.765 367.49 388.939C368.64 400.412 369.983 411.83 370.245 423.392C370.382 429.192 370.48 435.003 370.529 440.787C370.582 447.378 368.943 453.646 366.218 459.604C364.579 463.139 361.918 468.168 358.248 474.666C356.788 477.238 352.434 484.678 354.657 487.416C356.375 489.553 359.829 486.409 360.854 484.852C362.85 481.836 364.349 478.321 365.95 475.087C368.777 469.41 373.074 463.932 377.147 458.685C379.141 456.311 381.033 453.367 381.877 450.391Z" fill="white" fill-opacity="0.04"/>
<path d="M188.105 236.034C185.951 234.685 183.744 233.371 181.548 232.096C176.578 229.194 171.555 226.327 166.503 223.573C164.725 222.592 162.908 221.622 161.075 220.74C160.331 220.394 159.143 219.803 158.31 220.083C157.387 220.41 157.97 221.568 158.454 222.092C160.16 223.901 162.303 225.212 164.408 226.534C171.811 231.099 179.227 235.64 186.63 240.205C189.734 242.11 192.863 244.029 196.333 245.042C196.969 245.232 197.814 245.28 198.128 244.714C198.376 244.207 198.022 243.626 197.648 243.195C196.044 241.377 194.056 239.959 192.066 238.604C190.751 237.718 189.447 236.87 188.105 236.034Z" fill="white" fill-opacity="0.04"/>
<path d="M252.461 263.875C252.602 262.924 252.628 262.005 252.59 261.084C252.482 258.837 251.916 256.66 251.12 254.548C250.073 251.784 248.5 249.212 246.599 246.941C244.673 244.656 242.429 242.712 240.079 240.901C237.581 239.008 234.987 237.288 232.366 235.617C232.108 235.443 231.861 235.307 231.603 235.132C223.975 230.217 216.733 224.84 209.854 218.924C202.341 212.464 196.018 205.954 195.012 195.557C194.347 188.501 195.697 181.881 196.82 174.974C197.427 171.321 197.785 167.595 198.003 163.888C198.235 160.156 198.327 156.444 198.254 152.737C198.177 149.157 198.036 145.573 197.832 141.987C197.614 138.426 197.309 134.848 196.927 131.293C195.217 115.073 192.526 97.8295 184.88 83.0634C182.635 78.7377 180.998 75.2937 179.954 72.7562C177.247 66.1817 175.888 59.0962 175.852 51.4863C175.84 47.8454 175.814 44.229 175.827 40.6017C175.843 29.9329 170.966 22.6762 161.668 17.226C156.069 13.9451 150.137 11.3809 143.896 9.54704C137.768 7.74309 131.851 7.24537 126.183 8.04286C122.65 8.53854 117.547 9.71221 113.967 10.1178C99.7822 11.8464 86.2359 8.8777 73.9781 1.37735C67.8054 -2.38095 61.6189 -6.11462 55.4189 -9.82366C45.9527 -15.4949 35.2037 -21.0053 24.1184 -23.0025C19.0145 -23.92 13.7541 -23.5087 8.91144 -25.5363C3.23741 -27.9261 -1.85594 -33.6298 -4.97439 -38.8232C-7.86739 -43.6672 -10.1534 -49.4307 -15.4144 -52.3323C-18.0079 -53.7627 -20.996 -53.6097 -22.2377 -50.4995C-23.5615 -47.2415 -21.4662 -42.3551 -19.3889 -39.7621C-17.8034 -37.7941 -15.305 -35.9016 -13.1714 -34.0494C-9.90372 -31.218 -6.52672 -27.072 -4.30429 -24.6241C1.37134 -18.3419 9.01082 -14.6108 17.2121 -12.5318C29.4015 -9.44316 39.9308 -7.14148 50.4575 -1.7537C54.5765 0.357293 60.6063 3.90811 68.5222 8.88512C74.8132 12.8373 80.3627 16.091 87.1703 17.6587C90.448 18.4372 95.7646 18.7966 99.6188 19.9897C101.926 20.7153 104.222 21.4028 106.529 22.1284C112.929 24.0822 119.616 24.297 126.163 23.0196C135.55 21.2176 143.473 19.6698 152.033 24.3587C159.135 28.2438 163.581 34.9409 164.571 42.981C164.797 44.8421 165.03 47.7364 165.259 51.6257C165.737 59.8335 167.863 68.2104 170.519 76.9117C172.82 84.452 175.183 91.9948 177.637 99.491C180.603 108.621 182.472 114.38 183.206 116.778C184.171 119.98 185.046 123.229 185.782 126.497C186.55 129.879 187.217 133.27 187.744 136.681C188.282 140.129 188.692 143.636 188.989 147.112C189.285 150.589 189.418 154.071 189.411 157.572C189.406 161.011 189.25 164.431 188.906 167.843C188.537 171.531 188.028 175.239 187.432 178.93C185.024 193.618 181.784 207.945 193.546 219.77C197.91 224.172 202.701 228.036 207.919 231.364C216.126 236.631 224.978 240.677 233.078 246.077C235.98 247.999 238.627 250.553 240.5 253.515C240.879 254.11 241.231 254.755 241.52 255.397C241.922 256.358 242.234 257.366 242.444 258.383C243.059 261.519 242.596 264.738 241.013 267.531C239.568 270.079 237.309 272.114 234.633 273.275C233.578 273.722 232.452 274.066 231.295 274.232C227.138 274.866 222.307 273.456 218.391 271.618C212.16 268.663 206.376 264.959 201.066 260.518C197.562 257.589 194.034 254.646 190.517 251.741C187.573 249.314 184.496 247.07 181.309 245.022C178.147 242.989 174.876 241.153 171.511 239.426C168.133 237.723 164.66 236.193 161.131 234.762C157.578 233.317 153.943 232.02 150.374 230.662C149.724 230.497 149.068 230.167 148.459 229.928C147.85 229.688 147.227 229.473 146.618 229.234C145.213 228.684 143.795 228.159 142.39 227.61C138.275 226.015 133.209 223.285 131.283 219.489C129.192 215.409 130.924 210.833 133.978 207.597C136.769 204.601 139.595 202.879 143.318 200.88C149.626 198.056 155.982 195.322 162.371 192.703C163.464 192.244 165.283 191.35 167.802 190.006C181.577 182.68 178.345 166.296 174.307 154.388C172.598 149.329 170.913 144.283 169.204 139.224C167.655 134.574 166.694 130.957 166.298 128.358C165.595 123.693 164.981 120.266 164.456 118.015C162.795 110.892 159.726 104.504 155.187 98.8482C151.909 94.7567 146.445 90.3602 143.675 87.096C141.472 84.4977 139.615 82.3799 138.065 80.7535C130.421 72.6134 120.47 67.3503 109.076 67.3053C103.063 67.2697 97.1543 68.3847 91.1703 68.8794C87.8479 69.1697 85.5094 69.1985 84.1383 69.0534C78.3192 68.3204 72.6604 68.2869 67.2113 68.9801C57.9906 70.1339 48.7467 72.1433 39.5318 74.9727C33.4268 76.8479 27.8705 78.8972 22.2527 81.813C17.1116 84.5093 13.2832 88.4442 10.8033 93.6696C6.51252 102.624 3.88182 112.365 -1.58616 120.767C-6.79716 128.764 -13.93 135.282 -21.5689 140.911C-21.6346 140.971 -21.725 141.017 -21.8043 141.102C-23.7346 142.546 -25.7252 143.925 -27.7516 145.252C-38.2725 152.121 -50.5018 154.22 -62.7522 150.776C-72.3802 148.071 -83.0609 143.949 -91.6058 138.304C-97.3482 134.525 -103.155 129.875 -109.041 124.378C-115.522 118.327 -120.15 113.587 -126.312 109.867C-127.039 109.434 -127.805 109.012 -128.559 108.628C-129.314 108.244 -130.082 107.884 -130.853 107.588C-144.849 101.766 -161.8 108.015 -174.881 99.9642C-183.541 94.6414 -187.272 84.1571 -190.368 74.5053C-192.751 67.1129 -195.147 59.4553 -194.27 51.7699C-193.366 44.0353 -189.14 36.9425 -183.664 31.3755C-178.188 25.8084 -171.468 21.6031 -164.698 17.7148C-157.941 13.8512 -150.445 9.52693 -148.164 2.10144C-146.586 -3.01027 -147.931 -8.60873 -150.076 -13.5224C-152.22 -18.436 -155.124 -23.0284 -156.896 -28.0904C-158.577 -32.9092 -159.206 -38.1126 -158.692 -43.1677C-158.331 -46.6672 -158.06 -51.3419 -161.407 -52.5768C-163.684 -53.4146 -166.203 -51.7809 -167.526 -49.7448C-170.618 -44.9857 -169.444 -38.6134 -167.135 -33.4158C-164.558 -27.6528 -160.82 -22.4714 -158.282 -16.6975C-155.757 -10.8989 -154.59 -4.0482 -157.404 1.60423C-159.253 5.34423 -162.629 8.11389 -166.016 10.5555C-172.869 15.5237 -180.247 19.752 -186.812 25.0723C-193.377 30.3926 -199.226 37.04 -201.737 45.111C-205.269 56.4777 -200.036 66.6969 -196.973 77.4558C-193.657 89.0943 -193.062 101.162 -181.718 108.158C-175.498 112.006 -168.123 113.597 -160.872 114.541C-152.668 115.625 -144.447 116.332 -136.307 118.056C-136.219 118.072 -136.106 118.102 -136.019 118.118C-135.931 118.134 -135.805 118.139 -135.731 118.18C-127.503 119.92 -122.003 124.079 -116.077 129.792C-109.639 135.98 -103.374 142.073 -95.7931 146.897C-86.4883 152.801 -76.5165 157.561 -66.0508 161.082C-44.3348 168.396 -22.7187 158.448 -7.11609 143.35C0.00780707 136.441 6.79694 129.379 11.7956 120.718C15.1873 114.838 17.4318 108.293 20.3542 102.153C23.9812 94.5697 29.4965 89.5711 37.3872 86.6867C44.5326 84.0989 51.8741 82.2624 59.398 81.2019C73.9879 79.15 88.6299 78.5741 103.324 79.4742C118.383 80.4146 131.086 85.4267 140.467 97.355C146.669 105.246 151.316 113.791 153.891 123.509C154.94 127.433 155.73 132.403 156.556 136.846C157.588 142.369 158.822 147.005 160.205 150.791C164.702 162.92 170.315 174.314 154.925 182.228C147.189 186.227 139.527 189.398 132.348 194.894C126.216 199.552 121.837 205.467 119.155 212.511C116.825 218.687 115.648 227.494 120.19 233.087C123.29 236.919 130.115 238.978 135.123 240.358C138.821 241.368 142.491 242.428 146.202 243.413C149.826 244.382 153.493 245.215 157.146 246.072C160.786 246.954 164.412 247.86 167.965 249.016C169.298 249.462 170.631 249.907 171.923 250.427C173.166 250.92 174.461 251.377 175.622 252.017C178.297 253.299 181.095 255.293 183.978 257.944C189.745 263.248 195.137 268.762 201.862 272.921C207.711 276.565 214.162 279.706 220.838 281.394C230.666 283.855 240.467 279.387 247.553 272.779C250.118 270.366 251.925 267.342 252.461 263.875Z" fill="white" fill-opacity="0.04"/>
<path d="M545.838 154.881C547.701 148.383 545.325 142.666 544.822 136.246C543.793 123.392 541.399 110.847 539.327 98.1269C537.467 86.7125 536.477 75.939 543.727 66.0116C549.407 58.2738 557.356 52.4945 564.082 45.7198C568.053 41.7026 571.535 37.2872 574.218 32.3348C578.175 25.0293 578.164 17.7227 574.2 10.3905C569.802 2.27186 561.77 -7.78645 552.695 -10.7331C548.182 -12.1928 544.357 -11.0543 541.181 -7.30642C537.274 -2.70713 534.897 3.37913 531.197 8.18853C526.708 14.0107 520.641 18.6085 514.799 22.9762C513.208 24.1572 511.579 25.3492 509.977 26.492C509.169 27.0756 508.326 27.6074 507.518 28.1911C506.918 28.6323 506.098 29.5304 505.393 29.7531C499.364 34.05 493.255 39.6537 487.686 45.3303C481.761 51.3574 475.861 57.3981 469.972 63.477C461.205 72.5352 452.19 79.6558 439.063 79.9419C436.812 79.987 434.548 80.0567 432.297 80.1018C425.871 80.2883 419.983 82.1222 414.604 85.6526C409.226 89.183 404.371 93.5162 399.424 97.6062C392.254 103.493 384.211 108.513 374.537 106.007C366.05 103.803 358.968 99.1253 353.343 91.9382C350.777 88.6572 348.366 85.2694 346.164 81.739C340.964 73.4359 335.789 65.1464 330.628 56.8324C327.502 51.8276 324.775 46.6252 322.424 41.2117C321.006 37.9533 320.579 35.1768 320.356 31.7413C320.1 27.9012 318.762 24.8476 315.731 22.4039C307.664 15.8964 299.69 19.5709 293.558 26.32C287.837 32.6201 283.208 38.1719 275.219 41.2916C273.896 41.8161 271.775 42.383 268.853 43.0552C266.57 43.5651 264.299 44.1131 262.038 44.6995C260.07 45.2224 258.029 45.7044 256.265 46.7901C254.734 47.7468 253.407 49.2663 253.117 51.0682C252.835 52.6814 254.154 54.3738 255.543 55.0109C257.203 55.7979 259.365 55.4468 261.067 54.9381C262.409 54.5529 263.697 53.9766 264.949 53.3483C268.753 51.4909 272.545 49.6581 276.396 47.8908C281.099 45.6928 286.169 42.603 291.592 38.5832C292.74 37.7365 294.383 36.8096 296.52 35.8654C302.675 33.0853 308.297 35.5107 312.134 40.7465C316.114 46.1899 319.331 51.4378 321.725 56.4247C328.691 70.8476 335.595 86.7166 346.882 98.4091C350.019 101.651 354.111 104.101 357.36 107.372C359.761 109.79 362.262 113.131 364.324 114.88C370.255 119.887 378.124 118.438 384.825 115.605C395.32 111.166 404.478 104.253 413.854 97.878C423.958 91.0042 434.71 86.45 447.218 88.267C451.902 88.9528 457.203 90.9113 462.067 89.7026C468.808 88.0175 471.657 82.1272 474.001 76.2159C478.065 66.0428 484.309 57.5222 492.721 50.616C496.436 47.5833 501.867 44.5967 505.205 42.1278C510.629 38.108 515.382 33.2038 520.949 29.3915C523.876 27.3716 527.015 25.7258 529.81 23.5367C532.567 21.3586 534.931 18.61 536.762 15.5998C539.378 11.35 541.613 6.85765 544.679 3.01705C546.197 1.15282 548.535 -0.677383 550.898 -0.982336C556.207 -1.65617 562.063 7.26622 564.088 11.4065C567.534 18.4526 567 26.3916 563.44 33.2727C561.653 36.7256 559.336 39.5644 556.655 42.3628C549.997 49.3042 542.257 55.2307 537 63.4269C534.217 67.7454 532.284 72.5653 531.479 77.6209C530.677 82.6137 530.934 88.2551 531.45 93.4286C532.601 104.902 533.943 116.32 534.205 127.882C534.342 133.682 534.44 139.493 534.489 145.277C534.542 151.867 532.903 158.135 530.178 164.094C528.539 167.628 525.878 172.657 522.208 179.156C520.749 181.728 516.395 189.168 518.618 191.906C520.335 194.043 523.789 190.899 524.815 189.342C526.811 186.326 528.309 182.811 529.91 179.577C532.737 173.9 537.034 168.422 541.107 163.175C543.101 160.801 544.993 157.857 545.838 154.881Z" fill="white" fill-opacity="0.04"/>
<path d="M160.201 400.043C155.382 389.891 149.41 380.132 140.979 372.652C134.339 366.771 126.779 365.978 118.314 366.584C113.574 366.929 108.873 367.263 104.133 367.607C102.916 367.708 97.8014 368.264 97.6769 366.105C97.6033 364.842 99.9124 363.704 101.107 363.237C108.635 360.249 115.973 357.896 123.107 356.202C125.263 355.687 127.703 355.36 130.411 355.246C140.651 354.814 146.802 360.587 151.673 368.902C157.181 378.276 162.739 387.677 168.3 397.016C174.322 407.091 180.465 416.718 189.898 423.787C201.868 432.736 218.275 434.967 232.739 432.91C240.262 431.849 246.609 430.236 254.751 428.294C260.405 426.942 264.863 427.278 270.366 429.22C280.201 432.715 291.17 435.677 302.025 435.939C307.857 436.068 313.486 434.992 318.94 432.661C324.91 430.1 329.946 427.185 334.061 423.955C341.286 418.259 343.706 410.525 344.217 401.64C344.749 392.542 344.677 384.59 346.704 376.575C347.023 375.303 348.894 370.128 351.088 371.756C352.167 372.544 352.192 374.649 352.115 375.893C351.885 380.493 351.592 385.092 351.576 389.714C351.552 395.104 351.505 400.481 351.443 405.883C351.375 412.052 350.948 418.346 348.628 423.981C346.995 427.969 345.091 428.784 340.99 430.478C337.648 431.851 334.542 433.612 331.61 435.757C329.419 437.379 326.242 440.258 323.925 441.875C315.804 447.559 306.327 449.407 296.493 448.293C290.91 447.658 285.514 445.872 279.624 444.103C270.764 441.468 259.89 439.555 250.587 440.857C240.32 442.269 230.45 443.837 220.038 442.661C211.046 441.658 202.183 439.085 193.411 434.955C181.988 429.555 172.653 423.763 166.642 412.794C164.579 408.954 162.419 404.707 160.201 400.043Z" fill="white" fill-opacity="0.04"/>
<path d="M44.9541 333.746C41.3164 324.953 34.7873 312.186 37.7932 302.234C39.374 297.059 44.3238 291.684 50.2427 291.54C51.7095 291.512 52.9029 291.978 53.7958 292.985C57.6337 297.288 51.4221 303.833 49.7509 307.542C44.7948 318.51 50.1525 329.377 53.7271 339.678C57.4699 350.49 56.5924 360.909 52.414 371.405C50.3125 376.646 48.1973 381.912 46.0711 387.139C45.6207 388.242 44.8277 389.38 43.6921 390.555C42.2937 391.971 40.0729 391.904 40.137 389.463C40.1779 387.877 40.4438 386.351 40.9483 384.861C41.9053 381.915 42.8375 378.956 43.7698 375.996C46.0106 368.935 47.4121 361.699 48.0484 354.331C48.6323 346.709 47.8235 340.667 44.9541 333.746Z" fill="white" fill-opacity="0.04"/>
<path d="M208.916 38.2346C205.278 29.4421 198.749 16.6749 201.755 6.72239C203.336 1.54781 208.286 -3.82694 214.205 -3.97158C215.671 -3.99883 216.865 -3.53356 217.758 -2.52652C221.596 1.77722 215.384 8.32145 213.713 12.0311C208.757 22.9985 214.114 33.8653 217.689 44.1667C221.432 54.979 220.554 65.3979 216.376 75.8938C214.274 81.1349 212.159 86.4006 210.033 91.6281C209.583 92.7305 208.79 93.8691 207.654 95.0438C206.256 96.4595 204.035 96.3925 204.099 93.9514C204.14 92.3659 204.406 90.8401 204.91 89.3495C205.867 86.4038 206.799 83.4445 207.732 80.4852C209.972 73.4233 211.374 66.188 212.01 58.8202C212.594 51.1982 211.785 45.156 208.916 38.2346Z" fill="white" fill-opacity="0.04"/>
<path d="M187.889 15.3172C187.361 15.5723 186.713 15.3439 186.457 14.8168L184.729 11.1297C184.473 10.6026 184.702 9.95713 185.231 9.70196L185.307 9.67994C185.836 9.42477 186.484 9.65323 186.739 10.1803L188.468 13.8674C188.724 14.3945 188.495 15.04 187.966 15.2952L187.889 15.3172Z" fill="white" fill-opacity="0.04"/>
<path d="M192.674 74.6577C190.607 73.035 190.155 68.7334 190.269 66.3195C190.58 59.7695 190.941 53.2468 191.404 46.7157C191.574 44.1405 191.687 41.4369 192.251 39.1425C192.496 38.1197 193.677 36.7454 194.511 38.2664C195.897 40.7678 196.357 44.8808 196.73 47.7558C197.541 53.7351 198.174 59.7449 198.643 65.7604C198.829 68.2748 198.695 70.2596 197.885 72.4178C197.066 74.4748 194.887 76.425 192.674 74.6577Z" fill="white" fill-opacity="0.04"/>
<path d="M-26.2716 53.9236C-29.6854 47.6346 -34.2107 42.2442 -41.1549 39.4112C-43.2922 38.554 -45.4048 37.7104 -47.5174 36.8669C-53.0979 34.6574 -53.5015 28.2919 -46.3613 28.853C-39.221 29.4141 -32.29 32.5615 -28.0106 38.3951C-22.0796 46.4263 -18.3694 57.4136 -10.0735 63.2756C-3.80354 67.7308 4.20063 66.9673 11.643 64.8327C14.6353 63.9744 19.6004 62.4675 26.4863 60.3476C36.6493 57.2048 47.9784 56.0882 58.7914 54.6227C68.7521 53.2981 77.3286 50.6311 85.7405 44.9467C87.9503 43.4639 90.1601 41.9811 92.3562 40.5229C101.297 34.5833 111.854 32.5907 122.393 34.3511C123.422 34.5324 125.704 34.9547 129.214 35.6044C133.978 36.4951 138.954 35.0264 143.554 36.2126C148.041 37.369 150.533 40.3193 150.512 45.0674C150.498 52.6501 153.103 58.9433 155.77 65.8815C156.772 68.4929 158.445 73.2105 156.097 75.582C154.212 77.4687 151.985 76.0158 150.586 74.1186C148.231 70.922 147.226 66.8618 145.545 62.043C143.717 56.7899 140.819 52.0717 136.404 48.5754C126.756 40.9063 115.491 39.5818 104.133 44.1235C98.2726 46.4876 93.6312 49.6203 88.6172 52.9014C80.8758 57.9586 72.7004 61.0075 64.1045 62.0235C58.3401 62.7036 52.562 63.4084 46.7703 64.1378C37.6262 65.2695 28.7886 67.5352 20.2574 70.9346C14.5917 73.1808 7.54665 76.6924 3.23478 78.5918C-7.85995 83.4719 -14.6891 79.0943 -19.2648 68.5623C-21.5887 63.0996 -23.9252 58.241 -26.2716 53.9236Z" fill="white" fill-opacity="0.04"/>
<path d="M85.4848 286.919C87.3483 280.421 84.9719 274.704 84.4694 268.284C83.4399 255.431 81.0456 242.886 78.9744 230.165C77.1141 218.751 76.1239 207.977 83.3739 198.05C89.0542 190.312 97.0027 184.533 103.729 177.758C107.7 173.741 111.182 169.325 113.865 164.373C117.822 157.067 117.811 149.761 113.847 142.429C109.449 134.31 101.43 124.227 92.3421 121.305C87.8294 119.845 84.0042 120.984 80.828 124.732C76.9213 129.331 74.5444 135.417 70.8437 140.227C66.3553 146.049 60.2882 150.647 54.4455 155.014C52.8548 156.195 51.2257 157.387 49.6239 158.53C48.8162 159.114 47.9727 159.646 47.165 160.229C46.5654 160.67 45.7445 161.568 45.0403 161.791C39.0111 166.088 32.902 171.692 27.3331 177.368C21.4084 183.395 15.5084 189.436 9.6195 195.515C0.851791 204.573 -8.16346 211.694 -21.2899 211.98C-23.5407 212.025 -25.8051 212.095 -28.0559 212.14C-34.4819 212.326 -40.3704 214.16 -45.7485 217.691C-51.1266 221.221 -55.9824 225.554 -60.9291 229.644C-68.0987 235.531 -76.1418 240.551 -85.816 238.045C-94.3027 235.841 -101.385 231.163 -107.01 223.976C-109.576 220.695 -111.987 217.307 -114.189 213.777C-119.389 205.474 -124.564 197.185 -129.725 188.87C-132.851 183.866 -135.578 178.663 -137.929 173.25C-139.347 169.991 -139.774 167.215 -139.997 163.779C-140.253 159.939 -141.591 156.886 -144.622 154.442C-152.689 147.935 -160.663 151.609 -166.795 158.358C-172.516 164.658 -177.145 170.21 -185.134 173.33C-186.457 173.854 -188.578 174.421 -191.5 175.093C-193.783 175.603 -196.054 176.151 -198.315 176.738C-200.283 177.26 -202.324 177.743 -204.088 178.828C-205.619 179.785 -206.946 181.304 -207.236 183.106C-207.518 184.72 -206.199 186.412 -204.81 187.049C-203.15 187.836 -200.988 187.485 -199.286 186.976C-197.944 186.591 -196.656 186.015 -195.404 185.386C-191.599 183.529 -187.808 181.696 -183.957 179.929C-179.254 177.731 -174.184 174.641 -168.761 170.621C-167.613 169.775 -165.97 168.848 -163.833 167.904C-157.678 165.123 -152.056 167.549 -148.219 172.785C-144.239 178.228 -141.022 183.476 -138.628 188.463C-131.662 202.886 -124.758 218.755 -113.471 230.447C-110.334 233.689 -106.242 236.139 -102.993 239.41C-100.592 241.828 -98.0911 245.169 -96.0289 246.918C-90.0979 251.926 -82.2293 250.476 -75.5285 247.643C-65.0333 243.204 -55.8752 236.291 -46.4994 229.916C-36.3953 223.042 -25.6427 218.488 -13.1348 220.305C-8.45088 220.991 -3.15049 222.949 1.7137 221.741C8.45504 220.056 11.3039 214.165 13.6482 208.254C17.712 198.081 23.9556 189.56 32.3681 182.654C36.083 179.621 41.5142 176.635 44.8517 174.166C50.2756 170.146 55.0289 165.242 60.5957 161.43C63.5228 159.41 66.6617 157.764 69.4569 155.575C72.2138 153.397 74.5776 150.648 76.409 147.638C79.025 143.388 81.2595 138.896 84.3259 135.055C85.8441 133.191 88.1821 131.361 90.5448 131.056C95.8541 130.382 101.71 139.304 103.735 143.445C107.181 150.491 106.647 158.43 103.087 165.311C101.3 168.764 98.9833 171.602 96.3016 174.401C89.6438 181.342 81.904 187.269 76.6468 195.465C73.8636 199.783 71.9313 204.603 71.1262 209.659C70.3238 214.652 70.5808 220.293 71.0974 225.467C72.2478 236.94 73.59 248.358 73.8523 259.92C73.989 265.72 74.0873 271.531 74.1362 277.315C74.1893 283.905 72.5502 290.173 69.8249 296.132C68.1864 299.667 65.5252 304.695 61.855 311.194C60.3956 313.766 56.0418 321.206 58.2647 323.944C59.9821 326.081 63.4363 322.937 64.4616 321.38C66.4575 318.364 67.9563 314.849 69.557 311.615C72.3842 305.938 76.6814 300.46 80.7541 295.213C82.7485 292.839 84.6403 289.895 85.4848 286.919Z" fill="white" fill-opacity="0.04"/>
<path d="M249.445 -8.59212C251.309 -15.0902 248.932 -20.8071 248.43 -27.2271C247.4 -40.0807 245.006 -52.6257 242.935 -65.3463C241.074 -76.7606 240.084 -87.5342 247.334 -97.4616C253.015 -105.199 260.963 -110.979 267.69 -117.753C271.66 -121.771 275.143 -126.186 277.826 -131.138C281.782 -138.444 281.772 -145.75 277.808 -153.083C273.409 -161.201 265.377 -171.26 256.302 -174.206C251.79 -175.666 247.965 -174.527 244.788 -170.78C240.882 -166.18 238.505 -160.094 234.804 -155.285C230.316 -149.462 224.249 -144.865 218.406 -140.497C216.815 -139.316 215.186 -138.124 213.584 -136.981C212.777 -136.398 211.933 -135.866 211.125 -135.282C210.526 -134.841 209.705 -133.943 209.001 -133.72C202.971 -129.423 196.862 -123.819 191.293 -118.143C185.369 -112.116 179.469 -106.075 173.58 -99.9961C164.812 -90.938 155.797 -83.8174 142.671 -83.5312C140.42 -83.4862 138.155 -83.4165 135.904 -83.3714C129.478 -83.1848 123.59 -81.351 118.212 -77.8206C112.834 -74.2901 107.978 -69.957 103.031 -65.867C95.8617 -59.9798 87.8186 -54.9603 78.1444 -57.4658C69.6577 -59.67 62.5758 -64.3479 56.9506 -71.5349C54.384 -74.8159 51.9734 -78.2038 49.771 -81.7342C44.5714 -90.0373 39.3966 -98.3267 34.2355 -106.641C31.1091 -111.646 28.3827 -116.848 26.0315 -122.261C24.6137 -125.52 24.1864 -128.296 23.9636 -131.732C23.7071 -135.572 22.3691 -138.626 19.3379 -141.069C11.2712 -147.577 3.29698 -143.902 -2.83474 -137.153C-8.55603 -130.853 -13.1848 -125.301 -21.1737 -122.182C-22.4969 -121.657 -24.6179 -121.09 -27.5393 -120.418C-29.8221 -119.908 -32.094 -119.36 -34.3547 -118.774C-36.3223 -118.251 -38.3639 -117.769 -40.1275 -116.683C-41.6584 -115.726 -42.9853 -114.207 -43.2754 -112.405C-43.5576 -110.792 -42.2385 -109.099 -40.8501 -108.462C-39.19 -107.675 -37.0275 -108.026 -35.3258 -108.535C-33.9831 -108.92 -32.6956 -109.497 -31.4438 -110.125C-27.6391 -111.982 -23.848 -113.815 -19.9965 -115.582C-15.2931 -117.78 -10.224 -120.87 -4.80012 -124.89C-3.65292 -125.737 -2.00962 -126.664 0.12713 -127.608C6.28252 -130.388 11.9045 -127.963 15.7414 -122.727C19.7211 -117.283 22.9384 -112.035 25.3327 -107.048C32.298 -92.6255 39.2028 -76.7566 50.4894 -65.064C53.6263 -61.8223 57.7185 -59.3724 60.9678 -56.1008C63.3684 -53.6833 65.8693 -50.342 67.9315 -48.5936C73.8625 -43.5857 81.7311 -45.035 88.432 -47.868C98.9271 -52.307 108.085 -59.2201 117.461 -65.5951C127.565 -72.4689 138.318 -77.0232 150.826 -75.2062C155.51 -74.5203 160.81 -72.5618 165.674 -73.7706C172.415 -75.4557 175.264 -81.346 177.609 -87.2573C181.672 -97.4304 187.916 -105.951 196.328 -112.857C200.043 -115.89 205.475 -118.876 208.812 -121.345C214.236 -125.365 218.989 -130.269 224.556 -134.082C227.483 -136.102 230.622 -137.747 233.417 -139.936C236.174 -142.115 238.538 -144.863 240.369 -147.873C242.985 -152.123 245.22 -156.616 248.286 -160.456C249.804 -162.32 252.142 -164.151 254.505 -164.456C259.815 -165.129 265.67 -156.207 267.696 -152.067C271.141 -145.021 270.607 -137.082 267.047 -130.2C265.261 -126.748 262.944 -123.909 260.262 -121.11C253.604 -114.169 245.864 -108.242 240.607 -100.046C237.824 -95.7278 235.892 -90.9079 235.087 -85.8523C234.284 -80.8595 234.541 -75.2181 235.058 -70.0446C236.208 -58.5715 237.55 -47.1535 237.813 -35.5914C237.949 -29.7913 238.048 -23.9801 238.097 -18.1961C238.15 -11.6058 236.511 -5.33777 233.785 0.620656C232.147 4.15526 229.486 9.18418 225.815 15.6828C224.356 18.2549 220.002 25.6951 222.225 28.4327C223.943 30.5699 227.397 27.4257 228.422 25.8685C230.418 22.8526 231.917 19.3374 233.517 16.1035C236.345 10.4265 240.642 4.94901 244.715 -0.298415C246.709 -2.67194 248.601 -5.61657 249.445 -8.59212Z" fill="white" fill-opacity="0.04"/>
</g>
<defs>
<clipPath id="clip0_2647_1716">
<rect width="490" height="298" fill="white"/>
</clipPath>
</defs>
</svg>
